<svg xmlns="http://www.w3.org/2000/svg" width="462" height="343.584" viewBox="0 0 462 343.584">
    <defs>
        <style>
            .cls-1{fill:#e4e4de}.cls-2{fill:#f5bb3d}.cls-3{fill:#132529}.cls-4{fill:#334f55}.cls-5{fill:#fffffe}.cls-6{fill:#c7ccf1}.cls-7{fill:#b9bab6}.cls-8{fill:#5a68c2}.cls-9{fill:#cfd0ca}.cls-10{fill:#959894}.cls-12{fill:#d86151}.cls-15{fill:#253c40}
        </style>
    </defs>
    <g id="Group_9" data-name="Group 9" transform="translate(0 -.916)">
        <g id="_4841114" data-name="4841114" transform="translate(0 .5)">
            <path id="Fill_1" data-name="Fill 1" class="cls-1" d="M0 9.466h22.406V0H0z" transform="translate(27.705 244.226)"/>
            <path id="Fill_2" data-name="Fill 2" class="cls-1" d="M0 9.467h22.407V0H0z" transform="translate(15.205 256.162)"/>
            <path id="Fill_3" data-name="Fill 3" class="cls-1" d="M0 9.467h22.406V0H0z" transform="translate(40.203 256.162)"/>
            <path id="Fill_7" data-name="Fill 7" class="cls-1" d="M0 9.466h22.407V0H0z" transform="translate(333.028 244.16)"/>
            <path id="Fill_8" data-name="Fill 8" class="cls-1" d="M0 9.467h22.406V0H0z" transform="translate(279.531 135.074)"/>
            <path id="Fill_9" data-name="Fill 9" class="cls-1" d="M0 9.467h22.407V0H0z" transform="translate(292.03 123.137)"/>
            <g id="Group_20" data-name="Group 20" transform="translate(0 287.692)">
                <path id="Fill_19" data-name="Fill 19" class="cls-1" d="M462 27.918c0 15.418-103.422 27.918-231 27.918S0 43.335 0 27.918 103.423 0 231 0s231 12.5 231 27.918" transform="translate(0 .473)"/>
            </g>
            <path id="Fill_21" data-name="Fill 21" class="cls-2" d="M30.9 18.893a33.34 33.34 0 0 1-.649 12.825 35.2 35.2 0 0 1-1.965 5.669c-1.02 2.346-2.087 4.637-1.83 7.2.248.166-.6.139-.63-.11-6.861-3.906-15.661-4.622-20.942-11.009a21.868 21.868 0 0 1-4.36-10.687A32.512 32.512 0 0 1 .771 9.87c.907-3.48 2.942-6.836 6.212-8.54C10.36-.426 14.781-.28 18.336.824 26 3.205 29.816 11.478 30.9 18.893" transform="translate(286.605 187.099)"/>
            <path id="Fill_22" data-name="Fill 22" class="cls-3" d="M28.622 62.117c-.937-3.122-1.872-6.242-2.833-9.355-1.884-6.1-3.841-12.173-6.008-18.175q-1.945-5.393-4.106-10.687a64.465 64.465 0 0 1 .819-6.632c.574-2.66 1.407-5.229 2.183-7.832.047-.159-.212-.244-.278-.091-1.541 3.585-3.55 8.174-3.6 12.421q-2.514-5.985-5.393-11.8a50.456 50.456 0 0 1 .3-9.83.118.118 0 0 0-.229-.045 34.768 34.768 0 0 0-.672 8.677A164.466 164.466 0 0 0 4.123.15c-.149-.255-.5.005-.371.256q3.868 7.448 7.214 15.169A33 33 0 0 0 .208 9.346c-.17-.061-.3.186-.125.259a39.171 39.171 0 0 1 11.636 7.7q2.419 5.641 4.612 11.372C12.038 24.472 6.163 21.7.479 20.217c-.194-.05-.245.246-.059.3C7 22.5 12.107 26.228 17.109 30.707q.872 2.316 1.711 4.642 3.18 8.818 6.053 17.743 1.385 4.275 2.725 8.565c.959 3.076 1.709 6.325 2.959 9.295.118.284.629.219.564-.121a88.785 88.785 0 0 0-2.5-8.714" transform="translate(292.406 194.661)"/>
            <path id="Fill_23" data-name="Fill 23" class="cls-3" d="M2.472.085A17.075 17.075 0 0 0 0 6.243l.1.033A52.94 52.94 0 0 1 2.779.234c.1-.2-.191-.327-.307-.149" transform="translate(307.174 199.903)"/>
            <path id="Fill_24" data-name="Fill 24" class="cls-3" d="M6.191 2.073A18.113 18.113 0 0 0 .033 0L0 .1c.99.409 2.031.7 3.033 1.082s1.988.855 3 1.209a.177.177 0 0 0 .154-.318" transform="translate(291.214 212.209)"/>
            <path id="Fill_25" data-name="Fill 25" class="cls-3" d="M2.13 1.231A12.111 12.111 0 0 0 .149.009a.1.1 0 0 0-.113.173 12.073 12.073 0 0 0 1.952 1.266c.126.076.267-.135.142-.217" transform="translate(291.826 195.856)"/>
            <path id="Fill_26" data-name="Fill 26" class="cls-2" d="M21.27 37.468c-4.942 1.468-9.909 2.823-14.849 4.273-.43.129-8.784-15.877-5.765-24.122a26.916 26.916 0 0 1 16.8-15.937C20.982.484 25.32-.523 29.048.3a9.63 9.63 0 0 1 6.733 6.562c1.467 4.236.978 9.288.18 13.613A23.781 23.781 0 0 1 31.1 31.584c-2.626 3.12-5.976 4.743-9.828 5.884" transform="translate(319.368 191.826)"/>
            <path id="Fill_27" data-name="Fill 27" class="cls-3" d="M29.27 12.425a65.9 65.9 0 0 1-9.689 3.814 40.768 40.768 0 0 0-6.469 2.341c2.088-4.652 4.377-9.206 6.808-13.72A22.186 22.186 0 0 0 28.878.237.137.137 0 0 0 28.7.029a44.953 44.953 0 0 1-8.451 4.235q.986-1.821 2-3.637c.189-.338-.275-.672-.5-.345a104.275 104.275 0 0 0-7.022 11.791 54 54 0 0 1-.509-10.8.072.072 0 0 0-.144-.01 36 36 0 0 0 .123 11.871c-1.734 3.458-3.313 7-4.731 10.589-.564-2.156-1.3-4.277-1.785-6.451a29.641 29.641 0 0 1-.71-9.511c.009-.093-.129-.1-.144-.009A33.521 33.521 0 0 0 8.9 25.208a153.182 153.182 0 0 0-2.335 6.5A129.511 129.511 0 0 0 0 65.989a.209.209 0 0 0 .417.03 169.923 169.923 0 0 1 7.366-33.878c1.433-4.308 3.083-8.491 4.892-12.6 2.918-.863 5.827-2.032 8.693-3.025a27.3 27.3 0 0 0 8.013-3.928.1.1 0 0 0-.112-.168" transform="translate(318.533 201.658)"/>
            <path id="Fill_28" data-name="Fill 28" class="cls-3" d="M8.98.007C5.957 1.081 3.092 2.586.073 3.676c-.141.051-.058.275.084.245A20.329 20.329 0 0 0 9.095.18c.1-.081-.01-.211-.115-.173" transform="translate(343.431 209.427)"/>
            <path id="Fill_29" data-name="Fill 29" class="cls-3" d="M1.23.175c.036-.161-.2-.253-.247-.088C.154 2.872-.418 5.828.389 8.676A.109.109 0 0 0 .6 8.662C.747 5.793.587 3 1.23.175" transform="translate(326.502 202.739)"/>
            <path id="Fill_30" data-name="Fill 30" class="cls-3" d="M1.319.084A7.378 7.378 0 0 0 .007 4.82c0 .107.173.168.2.043C.579 3.27 1.195 1.817 1.684.27a.207.207 0 0 0-.365-.186" transform="translate(338.902 196.395)"/>
            <path id="Fill_31" data-name="Fill 31" class="cls-2" d="M.873 9.908c1.449 4.6 4.891 10.952 10.343 11 3.534.033 7.093-.385 10.637-.436 3.793-.058 7.6-.05 11.382.176.31.017-.454-11.358-9.573-16.9-2.555-1.548-5.679-2.037-8.576-2.666A39.774 39.774 0 0 0 4.952.027C2.858.111 1.116.554.371 2.7c-.779 2.244-.193 5.024.5 7.21" transform="translate(280.981 226.446)"/>
            <path id="Fill_32" data-name="Fill 32" class="cls-3" d="M.284 2.171C2.5 2.741 4.735 3.4 6.959 4.1a23.274 23.274 0 0 0-1.838-1.791C4.166 1.516 3.116.882 2.091.186c-.085-.058-.035-.222.075-.179a12.49 12.49 0 0 1 5.378 4.276c2.772.9 5.517 1.883 8.159 2.967A30.647 30.647 0 0 1 20.926 10a21.062 21.062 0 0 0-1.89-3.288c-1.209-1.568-2.847-2.441-4.436-3.555a.141.141 0 0 1 .142-.243 12.963 12.963 0 0 1 7.11 7.71 30.418 30.418 0 0 1 5.173 4.694c6.033 6.852 10.783 15.967 10.8 25.269 0 .222-.355.284-.4.054a51.548 51.548 0 0 0-11.497-24.707c-.432-.5-.874-.983-1.326-1.447a41.877 41.877 0 0 0-4.985-.371c-1.941.03-3.867.286-5.8.443-3.183.259-6.7.3-9.574-1.305-.126-.07-.041-.291.1-.239 6.4 2.326 13.115-.626 19.531.762a29.988 29.988 0 0 0-9.463-6.1c-.2-.081-.393-.156-.589-.235C9.717 7.934 5.379 9 1.379 7.669a.1.1 0 0 1 .052-.189C5.3 8.445 9 7.232 12.819 7.038 8.665 5.421 4.432 4.135.263 2.529c-.35-.135-.359-.455.02-.358" transform="translate(285.494 228.429)"/>
            <path id="Fill_33" data-name="Fill 33" class="cls-3" d="M.1.045A55.339 55.339 0 0 0 6.077.5l.011.083A12.383 12.383 0 0 1 .056.2.079.079 0 0 1 .1.045" transform="translate(283.867 234.599)"/>
            <path id="Fill_34" data-name="Fill 34" class="cls-3" d="M.226.008a9.8 9.8 0 0 1 2.96 2.057c.1.091-.036.278-.151.2A37.179 37.179 0 0 0 1.5 1.215 14.385 14.385 0 0 1 .054.3C-.082.191.063-.047.226.008" transform="translate(297.244 230.693)"/>
            <path id="Fill_35" data-name="Fill 35" class="cls-2" d="M.013 14.624c-.068.151.15.293.234.135l.008-.008.142.091a91.433 91.433 0 0 0 11.139 1.942c3.015.269 6.491.436 9.129-1.314C24.242 13.1 26.6 6.762 24.66 2.734c-2.286-4.782-9.179-2.185-12.638-.486A25.368 25.368 0 0 0 .013 14.624" transform="translate(329.654 230.879)"/>
            <path id="Fill_36" data-name="Fill 36" class="cls-3" d="M11.115 14.033a35.565 35.565 0 0 1 6.652-5.062A22.765 22.765 0 0 1 24.511 2.1c.132-.09.244.117.123.209a30.5 30.5 0 0 0-5.684 5.976 62.856 62.856 0 0 1 8.345-3.795A11.108 11.108 0 0 1 31.777 0l.048.061a18.409 18.409 0 0 0-4.049 4.249 150.09 150.09 0 0 1 5.119-1.79c.154-.051.212.183.067.24-3.047 1.19-6.162 2.44-9.181 3.893A35.363 35.363 0 0 0 34.9 6.62a.082.082 0 0 1 .043.158 21.925 21.925 0 0 1-11.8.176 55.535 55.535 0 0 0-5.595 3.133 14.029 14.029 0 0 1 4.523.37 34.41 34.41 0 0 0 7.946.9c.1 0 .128.162.024.18-4.61.793-8.968-1.3-13.538-.757a35.345 35.345 0 0 0-4.759 3.886 35.76 35.76 0 0 0-6.94 9.79C2.884 28.369 1.84 32.518.286 36.562A.147.147 0 0 1 0 36.484c1.332-7.973 5.3-16.767 11.113-22.451" transform="translate(315.877 233.681)"/>
            <path id="Fill_37" data-name="Fill 37" class="cls-3" d="M0 2.451a5.24 5.24 0 0 1 1.182-1.432A4.628 4.628 0 0 1 2.543 0l.045.076c-.38.429-.906.744-1.313 1.154s-.751.9-1.167 1.3L0 2.451" transform="translate(340.895 234.329)"/>
            <path id="Fill_38" data-name="Fill 38" class="cls-3" d="M.079.915c.684-.171 1.407-.159 2.1-.3A19.853 19.853 0 0 0 4.22 0a.082.082 0 0 1 .063.149 6.769 6.769 0 0 1-4.2.977.112.112 0 0 1 0-.215" transform="translate(348.419 238.339)"/>
            <path id="Fill_39" data-name="Fill 39" class="cls-4" d="m0 0 2.659 30.068H20.83L24.153 0H0" transform="translate(307.996 260.34)"/>
            <path id="Fill_40" data-name="Fill 40" class="cls-3" d="m0 0 .605 6.87H23.4L24.153 0H0" transform="translate(307.996 260.34)"/>
            <path id="Fill_41" data-name="Fill 41" class="cls-4" d="M0 5.574h27.751V0H0z" transform="translate(306.197 258.466)"/>
            <path id="Fill_42" data-name="Fill 42" class="cls-3" d="M0 .423 42.945.217 85.891.142 171.782 0l85.891.14 42.944.074 42.946.207-42.946.208L257.673.7l-85.891.145L85.891.7 42.945.629 0 .423" transform="translate(13.538 289.925)"/>
            <path id="Fill_43" data-name="Fill 43" class="cls-5" d="M313.077 16.556v274.151c0 7.749-11.807 14.019-26.368 14.019H26.4c-14.6 0-26.4-6.27-26.4-14.019V16.556C0 .77 11.807 0 26.4 0h52.153c3.029 0 5.508 1.692 5.508 3.79v.91c0 4.915 5.473 4.932 12.186 4.932H216.83c6.781 0 12.22-.017 12.22-4.932v-.91c0-2.1 2.444-3.79 5.525-3.79h52.134c14.561 0 26.368 2.1 26.368 16.556" transform="translate(145.828 .416)"/>
            <path id="Fill_46" data-name="Fill 46" class="cls-6" d="M313.077 16.556v32.867H0V16.556C0 .77 11.807 0 26.4 0h52.153c3.029 0 5.508 1.692 5.508 3.79v.91c0 4.915 5.473 4.932 12.186 4.932H216.83c6.781 0 12.22-.017 12.22-4.932v-.91c0-2.1 2.444-3.79 5.525-3.79h52.134c14.561 0 26.368 2.1 26.368 16.556" transform="translate(145.828 .416)"/>
            <path id="Fill_51" data-name="Fill 51" class="cls-5" d="M0 5.5A5.5 5.5 0 1 1 5.5 11 5.5 5.5 0 0 1 0 5.5" transform="translate(166.021 7.994)"/>
            <path id="Fill_52" data-name="Fill 52" class="cls-5" d="M0 5.5A5.5 5.5 0 1 1 5.5 11 5.5 5.5 0 0 1 0 5.5" transform="translate(182.944 7.994)"/>
            <path id="Fill_53" data-name="Fill 53" class="cls-5" d="M0 5.5A5.5 5.5 0 1 1 5.5 11 5.5 5.5 0 0 1 0 5.5" transform="translate(200.714 7.994)"/>
            <path id="Fill_59" data-name="Fill 59" class="cls-5" d="M4.547 8.52 0 4.26 4.547 0l.706.752L1.509 4.26l3.744 3.508-.706.752" transform="translate(155.312 32.288)"/>
            <path id="Fill_60" data-name="Fill 60" class="cls-5" d="M.439 5.585A.445.445 0 0 1 0 5.146V.439A.44.44 0 0 1 .439 0h1.429a1.707 1.707 0 1 1 0 3.415H.886v1.731a.443.443 0 0 1-.447.439zM.886.886V2.53h.982a.822.822 0 1 0 0-1.644z" transform="translate(200.815 33.717)"/>
            <path id="Fill_61" data-name="Fill 61" class="cls-5" d="m.441 5.576-.153-.023a.453.453 0 0 1-.262-.575L1.789.28a.446.446 0 0 1 .4-.28h.041a.44.44 0 0 1 .4.28L4.4 4.978a.452.452 0 0 1-.264.575l-.151.023a.43.43 0 0 1-.408-.276l-.392-1.04H1.246L.855 5.3a.447.447 0 0 1-.414.276zm1.77-3.909-.646 1.716h1.294z" transform="translate(204.574 33.725)"/>
            <path id="Fill_62" data-name="Fill 62" class="cls-5" d="M.087 4.356A.416.416 0 0 1 .67 4.3a2.6 2.6 0 0 0 1.524.615 1.724 1.724 0 0 0 1-.3.719.719 0 0 0 .343-.574.454.454 0 0 0-.072-.255.757.757 0 0 0-.239-.239 3.209 3.209 0 0 0-1.096-.372h-.017a4.332 4.332 0 0 1-1.029-.311 1.71 1.71 0 0 1-.742-.622 1.23 1.23 0 0 1-.183-.655A1.471 1.471 0 0 1 .8.423 2.356 2.356 0 0 1 2.177 0a3.126 3.126 0 0 1 1.74.638.412.412 0 0 1 .112.567.4.4 0 0 1-.567.119 2.31 2.31 0 0 0-1.285-.51 1.517 1.517 0 0 0-.894.272.636.636 0 0 0-.3.5.388.388 0 0 0 .057.223.759.759 0 0 0 .216.207 2.737 2.737 0 0 0 1 .351h.016a4.717 4.717 0 0 1 1.1.336 1.865 1.865 0 0 1 .8.662 1.291 1.291 0 0 1 .192.678 1.543 1.543 0 0 1-.687 1.236 2.49 2.49 0 0 1-1.476.455 3.442 3.442 0 0 1-2.043-.8.424.424 0 0 1-.063-.582" transform="translate(209.668 33.558)"/>
            <path id="Fill_63" data-name="Fill 63" class="cls-5" d="M.087 4.356A.416.416 0 0 1 .669 4.3a2.6 2.6 0 0 0 1.524.615 1.722 1.722 0 0 0 1-.3.719.719 0 0 0 .343-.574.454.454 0 0 0-.072-.255.739.739 0 0 0-.239-.239 3.2 3.2 0 0 0-1.095-.372h-.016a4.308 4.308 0 0 1-1.029-.311 1.706 1.706 0 0 1-.742-.622 1.224 1.224 0 0 1-.184-.655A1.471 1.471 0 0 1 .8.423 2.357 2.357 0 0 1 2.178 0a3.126 3.126 0 0 1 1.739.638.411.411 0 0 1 .112.567.4.4 0 0 1-.567.119 2.307 2.307 0 0 0-1.284-.51 1.518 1.518 0 0 0-.894.272.635.635 0 0 0-.3.5.388.388 0 0 0 .056.223.759.759 0 0 0 .216.207 2.736 2.736 0 0 0 1 .351h.015a4.7 4.7 0 0 1 1.1.336 1.86 1.86 0 0 1 .8.662 1.291 1.291 0 0 1 .192.678 1.543 1.543 0 0 1-.687 1.236 2.49 2.49 0 0 1-1.476.455 3.445 3.445 0 0 1-2.043-.8.425.425 0 0 1-.063-.582" transform="translate(214.913 33.558)"/>
            <path id="Fill_64" data-name="Fill 64" class="cls-5" d="M7.652.6 5.7 5.253l-.041.071-.007.008-.041.047L5.6 5.4l-.056.04h-.007l-.071.048h-.008l-.009.012-.063.016h-.015l-.08.008-.072-.008h-.024L5.139 5.5l-.016-.008-.072-.048h-.008L4.987 5.4l-.016-.02-.032-.047-.016-.008-.032-.071L3.846 2.78 2.8 5.253l-.032.071-.008.008-.048.047L2.7 5.4l-.047.04h-.012l-.063.048h-.009l-.008.012-.061.016h-.027l-.073.008-.08-.008H2.3L2.242 5.5l-.015-.008-.072-.048h-.009L2.091 5.4l-.016-.02-.041-.047v-.009l-.04-.071L.032.6A.43.43 0 0 1 .271.036a.427.427 0 0 1 .567.231L2.4 3.961l1.031-2.45a.441.441 0 0 1 .415-.272.457.457 0 0 1 .415.272l1.029 2.45L6.846.267a.442.442 0 0 1 .583-.231.43.43 0 0 1 .223.564" transform="translate(220.004 33.778)"/>
            <path id="Fill_65" data-name="Fill 65" class="cls-5" d="M2.745 5.744A2.7 2.7 0 0 1 .79 4.891 2.905 2.905 0 0 1 0 2.872 2.932 2.932 0 0 1 .79.853 2.669 2.669 0 0 1 2.745 0a2.6 2.6 0 0 1 1.907.853 2.943 2.943 0 0 1 .806 2.019 2.916 2.916 0 0 1-.806 2.019 2.627 2.627 0 0 1-1.907.853zm0-4.835a1.735 1.735 0 0 0-1.293.566 2.035 2.035 0 0 0-.542 1.4 1.993 1.993 0 0 0 .542 1.385 1.706 1.706 0 0 0 2.553 0 2.021 2.021 0 0 0 .543-1.388 2.065 2.065 0 0 0-.543-1.4 1.718 1.718 0 0 0-1.26-.563z" transform="translate(228.569 33.558)"/>
            <path id="Fill_66" data-name="Fill 66" class="cls-5" d="M.438 5.585A.439.439 0 0 1 0 5.146V.439A.434.434 0 0 1 .438 0h1.429a1.713 1.713 0 0 1 1.707 1.715 1.684 1.684 0 0 1-.622 1.309 1.271 1.271 0 0 1 .28.3 1.51 1.51 0 0 1 .263.861 2.034 2.034 0 0 0 .032.471.426.426 0 0 1 .279.272.442.442 0 0 1-.279.558.719.719 0 0 1-.175.023h-.008a.579.579 0 0 1-.311-.087.788.788 0 0 1-.256-.279 2.161 2.161 0 0 1-.167-.958.678.678 0 0 0-.1-.343.71.71 0 0 0-.239-.232 1.548 1.548 0 0 0-.446-.191H.886v1.727a.443.443 0 0 1-.448.439zM.886.886V2.53h.982a.822.822 0 0 0 0-1.644z" transform="translate(235.49 33.717)"/>
            <path id="Fill_67" data-name="Fill 67" class="cls-5" d="M1.381 5.585H.439A.439.439 0 0 1 0 5.146V.439A.435.435 0 0 1 .439 0h.941a2.792 2.792 0 0 1 0 5.585zm-.5-4.7V4.7h.5a1.907 1.907 0 0 0 0-3.813z" transform="translate(240.589 33.717)"/>
            <g id="Group_7" data-name="Group 7" transform="translate(249.615 140.756)">
                <path id="Fill_68" data-name="Fill 68" class="cls-3" d="M0 3.822V.327A.322.322 0 0 1 .326 0h1.937a.33.33 0 0 1 .327.327.335.335 0 0 1-.327.332H.657v1.084h1.381a.329.329 0 0 1 0 .657H.657v1.09h1.606a.329.329 0 0 1 0 .658H.344l-.012-.005-.006.006A.326.326 0 0 1 0 3.822" transform="translate(.616 38.832)"/>
                <path id="Fill_69" data-name="Fill 69" class="cls-3" d="M2.478 1.226v1.423a.317.317 0 0 1-.315.314.325.325 0 0 1-.32-.314V1.226a.6.6 0 0 0-1.209.019v1.4l-.006.045v.017l-.018.036v.03a.347.347 0 0 1-.3.19l-.055-.006A.323.323 0 0 1 0 2.649V.32A.314.314 0 0 1 .314 0 .3.3 0 0 1 .6.178 1.247 1.247 0 0 1 1.232 0a1.227 1.227 0 0 1 .931.409A1.219 1.219 0 0 1 3.094 0a1.238 1.238 0 0 1 1.232 1.244v1.4a.316.316 0 0 1-.314.314.321.321 0 0 1-.321-.314v-1.4a.607.607 0 0 0-.6-.611.614.614 0 0 0-.616.592" transform="translate(4.063 40.019)"/>
                <path id="Fill_70" data-name="Fill 70" class="cls-3" d="M2.507 2.963a.324.324 0 0 1-.307-.256 1.341 1.341 0 0 1-.789.256A1.379 1.379 0 0 1 .4 2.53 1.519 1.519 0 0 1 0 1.487 1.5 1.5 0 0 1 .4.444 1.371 1.371 0 0 1 1.41 0a1.355 1.355 0 0 1 .79.26.321.321 0 0 1 .307-.26.317.317 0 0 1 .314.319v2.33a.314.314 0 0 1-.314.314zM1.41.634a.721.721 0 0 0-.55.243.872.872 0 0 0-.225.61.892.892 0 0 0 .225.613.747.747 0 0 0 .551.231.769.769 0 0 0 .551-.231.894.894 0 0 0 .231-.61.873.873 0 0 0-.231-.61.731.731 0 0 0-.552-.246z" transform="translate(9.381 40.019)"/>
                <path id="Fill_71" data-name="Fill 71" class="cls-3" d="M.379 4.149A.354.354 0 0 1 0 3.828V1.517a.347.347 0 0 1 .379-.325.343.343 0 0 1 .378.325v2.311a.345.345 0 0 1-.378.321zm0-3.378A.356.356 0 0 1 0 .445V.32A.354.354 0 0 1 .379 0a.349.349 0 0 1 .378.32v.125a.351.351 0 0 1-.378.326z" transform="translate(13.368 38.832)"/>
                <path id="Fill_72" data-name="Fill 72" class="cls-3" d="M.42 0a.331.331 0 0 1 .332.327v3.5a.329.329 0 0 1-.658 0v-3.5A.329.329 0 0 1 .42 0" transform="translate(14.85 38.832)"/>
                <path id="Fill_73" data-name="Fill 73" class="cls-1" d="M0 9.936h112.186V0H0z" transform="translate(0 47.198)"/>
                <path id="Fill_74" data-name="Fill 74" class="cls-7" d="M1.446 2.963A1.465 1.465 0 0 1 0 1.481 1.474 1.474 0 0 1 1.446 0a1.413 1.413 0 0 1 1.429 1.374V1.4l-.007.053a.286.286 0 0 1-.308.238H.675a.781.781 0 0 0 .2.391.91.91 0 0 0 .57.266h.086a.918.918 0 0 0 .53-.151.33.33 0 0 1 .239-.087.267.267 0 0 1 .2.076.314.314 0 0 1 .081.214.239.239 0 0 1-.081.171 1.5 1.5 0 0 1-1.054.392zm0-2.4a.834.834 0 0 0-.8.628h1.677a.964.964 0 0 0-.877-.628z" transform="translate(2.882 51.16)"/>
                <path id="Fill_75" data-name="Fill 75" class="cls-7" d="M2.478 1.226v1.423a.317.317 0 0 1-.315.314.325.325 0 0 1-.32-.314V1.226a.6.6 0 0 0-1.208.018v1.405l-.007.041v.018l-.018.035v.03a.347.347 0 0 1-.3.19l-.055-.006A.323.323 0 0 1 0 2.649V.32A.314.314 0 0 1 .314 0 .3.3 0 0 1 .6.178 1.247 1.247 0 0 1 1.233 0a1.226 1.226 0 0 1 .93.409A1.22 1.22 0 0 1 3.094 0a1.237 1.237 0 0 1 1.232 1.244v1.405a.316.316 0 0 1-.314.314.322.322 0 0 1-.321-.314V1.244a.606.606 0 0 0-.6-.609.614.614 0 0 0-.616.591" transform="translate(6.696 51.16)"/>
                <path id="Fill_76" data-name="Fill 76" class="cls-7" d="M2.507 2.963a.324.324 0 0 1-.307-.256 1.341 1.341 0 0 1-.788.256A1.382 1.382 0 0 1 .4 2.53 1.519 1.519 0 0 1 0 1.487 1.5 1.5 0 0 1 .4.444 1.371 1.371 0 0 1 1.41 0a1.349 1.349 0 0 1 .79.26.321.321 0 0 1 .307-.26.317.317 0 0 1 .314.319v2.33a.314.314 0 0 1-.314.314zM1.41.635a.71.71 0 0 0-.551.242.872.872 0 0 0-.225.61.892.892 0 0 0 .225.61.748.748 0 0 0 .552.231.764.764 0 0 0 .55-.228.894.894 0 0 0 .231-.61.873.873 0 0 0-.231-.61.725.725 0 0 0-.551-.245z" transform="translate(12.015 51.16)"/>
                <path id="Fill_77" data-name="Fill 77" class="cls-7" d="M.378 4.149A.349.349 0 0 1 0 3.828V1.517a.347.347 0 0 1 .378-.325.343.343 0 0 1 .378.325v2.311a.345.345 0 0 1-.378.321zm0-3.378A.355.355 0 0 1 0 .446V.32A.353.353 0 0 1 .378 0a.349.349 0 0 1 .378.32v.126a.351.351 0 0 1-.378.325z" transform="translate(16.002 49.974)"/>
                <path id="Fill_78" data-name="Fill 78" class="cls-7" d="M.42 0a.331.331 0 0 1 .332.327v3.5a.329.329 0 0 1-.657 0v-3.5A.329.329 0 0 1 .42 0" transform="translate(17.483 49.974)"/>
                <path id="Fill_79" data-name="Fill 79" class="cls-7" d="M2.507 2.963a.321.321 0 0 1-.307-.256 1.341 1.341 0 0 1-.788.256A1.382 1.382 0 0 1 .4 2.53 1.519 1.519 0 0 1 0 1.487 1.5 1.5 0 0 1 .4.444 1.371 1.371 0 0 1 1.41 0a1.349 1.349 0 0 1 .79.26.322.322 0 0 1 .307-.26.317.317 0 0 1 .314.319v2.33a.314.314 0 0 1-.314.314zM1.41.635a.713.713 0 0 0-.551.242.872.872 0 0 0-.225.61.892.892 0 0 0 .225.61.751.751 0 0 0 .552.231.764.764 0 0 0 .55-.228.894.894 0 0 0 .232-.61.874.874 0 0 0-.232-.61.725.725 0 0 0-.551-.245z" transform="translate(18.697 51.16)"/>
                <path id="Fill_80" data-name="Fill 80" class="cls-7" d="M2.561 4.149a.318.318 0 0 1-.314-.256 1.439 1.439 0 0 1-.806.256A1.46 1.46 0 0 1 0 2.673a1.466 1.466 0 0 1 1.441-1.487 1.414 1.414 0 0 1 .794.248V.32a.323.323 0 0 1 .646 0v3.508a.325.325 0 0 1-.32.321zm-1.12-2.317a.766.766 0 0 0-.557.244.857.857 0 0 0 0 1.184.76.76 0 0 0 1.116 0 .859.859 0 0 0 0-1.185.759.759 0 0 0-.559-.243z" transform="translate(22.481 49.974)"/>
                <path id="Fill_81" data-name="Fill 81" class="cls-7" d="M1.824.308a.315.315 0 0 1-.313.314.569.569 0 0 0-.356.113.887.887 0 0 0-.272.285 1.806 1.806 0 0 0-.243.5v1.123a.322.322 0 0 1-.326.314A.316.316 0 0 1 0 2.643V.308A.311.311 0 0 1 .314 0 .318.318 0 0 1 .64.308V.35L.764.231A1.3 1.3 0 0 1 1.511 0a.307.307 0 0 1 .313.308" transform="translate(26.586 51.166)"/>
                <path id="Fill_82" data-name="Fill 82" class="cls-7" d="M1.446 2.963A1.463 1.463 0 0 1 0 1.481 1.473 1.473 0 0 1 1.446 0a1.413 1.413 0 0 1 1.428 1.374V1.4l-.006.053a.285.285 0 0 1-.308.238H.675a.781.781 0 0 0 .2.391.909.909 0 0 0 .57.266h.086a.922.922 0 0 0 .53-.151.331.331 0 0 1 .239-.087.267.267 0 0 1 .2.076.317.317 0 0 1 .081.216.237.237 0 0 1-.081.169 1.5 1.5 0 0 1-1.054.392zm0-2.4a.824.824 0 0 0-.8.628h1.677a.964.964 0 0 0-.877-.628z" transform="translate(28.683 51.16)"/>
                <path id="Fill_83" data-name="Fill 83" class="cls-7" d="M.07 2.115a.309.309 0 0 1 .445-.047 1.08 1.08 0 0 0 .652.261.788.788 0 0 0 .4-.113.242.242 0 0 0 .107-.178l-.018-.059-.077-.071a1.371 1.371 0 0 0-.474-.167H1.1a2.248 2.248 0 0 1-.515-.153.983.983 0 0 1-.41-.344.716.716 0 0 1-.1-.373.833.833 0 0 1 .35-.652A1.275 1.275 0 0 1 1.154 0a1.515 1.515 0 0 1 .888.326.328.328 0 0 1 .1.438.315.315 0 0 1-.442.083 1.012 1.012 0 0 0-.546-.219A.6.6 0 0 0 .8.734a.182.182 0 0 0-.1.137l.016.047.064.059a1.2 1.2 0 0 0 .433.142l.006.006h.006a2.165 2.165 0 0 1 .551.172.929.929 0 0 1 .421.35.767.767 0 0 1 .113.391.855.855 0 0 1-.374.687 1.348 1.348 0 0 1-.77.238 1.721 1.721 0 0 1-1.055-.41.316.316 0 0 1-.041-.438" transform="translate(32.285 51.16)"/>
                <path id="Fill_84" data-name="Fill 84" class="cls-7" d="M.07 2.115a.309.309 0 0 1 .445-.047 1.08 1.08 0 0 0 .652.261.788.788 0 0 0 .4-.113.24.24 0 0 0 .107-.178l-.018-.059-.076-.071a1.384 1.384 0 0 0-.475-.167H1.1a2.248 2.248 0 0 1-.515-.153.983.983 0 0 1-.41-.344.716.716 0 0 1-.1-.373.83.83 0 0 1 .35-.652A1.275 1.275 0 0 1 1.154 0a1.515 1.515 0 0 1 .888.326.328.328 0 0 1 .1.438.315.315 0 0 1-.442.083 1.012 1.012 0 0 0-.546-.219A.6.6 0 0 0 .8.734a.182.182 0 0 0-.1.137l.016.047.064.059a1.2 1.2 0 0 0 .433.142l.006.006h.006a2.165 2.165 0 0 1 .551.172.929.929 0 0 1 .421.35.767.767 0 0 1 .113.391.855.855 0 0 1-.374.687 1.348 1.348 0 0 1-.77.238 1.721 1.721 0 0 1-1.055-.41.316.316 0 0 1-.041-.438" transform="translate(35.14 51.16)"/>
                <path id="Fill_85" data-name="Fill 85" class="cls-7" d="M2.069 4.149a2.075 2.075 0 1 1 2.074-2.081 1.973 1.973 0 0 1-.231.955v.005a.236.236 0 0 0-.019.029 1.229 1.229 0 0 1-.129.178.966.966 0 0 1-.462.285l-.156.017H3.13a.538.538 0 0 1-.43-.218l-.1-.178a1.159 1.159 0 0 1-.534.131 1.111 1.111 0 0 1-.818-.355 1.249 1.249 0 0 1-.326-.848 1.225 1.225 0 0 1 .326-.835 1.114 1.114 0 0 1 .821-.362 1.13 1.13 0 0 1 .823.361 1.221 1.221 0 0 1 .325.835v.777l.043-.035.077-.1a1.443 1.443 0 0 0 .148-.645 1.414 1.414 0 1 0-1.416 1.421 1.687 1.687 0 0 0 .355-.037.313.313 0 0 1 .083-.011.324.324 0 0 1 .314.242.335.335 0 0 1-.238.4 2.147 2.147 0 0 1-.514.069zm0-2.62a.481.481 0 0 0-.338.148.559.559 0 0 0-.148.391.567.567 0 0 0 .148.4.453.453 0 0 0 .338.148.464.464 0 0 0 .343-.148.6.6 0 0 0 0-.788.494.494 0 0 0-.343-.151z" transform="translate(38.029 49.974)"/>
                <path id="Fill_86" data-name="Fill 86" class="cls-7" d="M2.478 1.226v1.423a.316.316 0 0 1-.314.314.325.325 0 0 1-.321-.314V1.226a.6.6 0 0 0-1.209.018v1.405l-.006.041v.018l-.017.036v.03a.348.348 0 0 1-.3.19l-.056-.007A.323.323 0 0 1 0 2.649V.32A.314.314 0 0 1 .314 0 .3.3 0 0 1 .6.178 1.25 1.25 0 0 1 1.233 0a1.228 1.228 0 0 1 .931.409A1.216 1.216 0 0 1 3.094 0a1.237 1.237 0 0 1 1.232 1.244v1.405a.316.316 0 0 1-.314.314.321.321 0 0 1-.32-.314V1.244a.606.606 0 0 0-.6-.609.613.613 0 0 0-.616.591" transform="translate(44.07 51.16)"/>
                <path id="Fill_87" data-name="Fill 87" class="cls-7" d="M2.507 2.963a.32.32 0 0 1-.307-.256 1.347 1.347 0 0 1-.789.256A1.382 1.382 0 0 1 .4 2.53 1.519 1.519 0 0 1 0 1.487 1.5 1.5 0 0 1 .4.444 1.371 1.371 0 0 1 1.41 0a1.355 1.355 0 0 1 .79.26.321.321 0 0 1 .307-.26.317.317 0 0 1 .314.319v2.33a.314.314 0 0 1-.314.314zM1.41.635a.709.709 0 0 0-.55.242.872.872 0 0 0-.226.61.892.892 0 0 0 .226.613.747.747 0 0 0 .551.231.765.765 0 0 0 .551-.231.893.893 0 0 0 .23-.61.873.873 0 0 0-.23-.61.735.735 0 0 0-.552-.245z" transform="translate(49.389 51.16)"/>
                <path id="Fill_88" data-name="Fill 88" class="cls-7" d="M.378 4.149A.349.349 0 0 1 0 3.828V1.517a.347.347 0 0 1 .378-.325.343.343 0 0 1 .379.325v2.311a.346.346 0 0 1-.379.321zm0-3.378A.355.355 0 0 1 0 .446V.32A.353.353 0 0 1 .378 0a.35.35 0 0 1 .379.32v.126a.352.352 0 0 1-.379.325z" transform="translate(53.375 49.974)"/>
                <path id="Fill_89" data-name="Fill 89" class="cls-7" d="M.421 0a.331.331 0 0 1 .331.327v3.5a.329.329 0 0 1-.658 0v-3.5A.33.33 0 0 1 .421 0" transform="translate(54.857 49.974)"/>
                <path id="Fill_90" data-name="Fill 90" class="cls-7" d="M.438 0a.448.448 0 0 1 .445.444.444.444 0 0 1-.445.439.442.442 0 0 1 0-.883" transform="translate(56.319 53.281)"/>
                <path id="Fill_91" data-name="Fill 91" class="cls-7" d="M0 1.487A1.508 1.508 0 0 1 1.506 0a1.561 1.561 0 0 1 .942.326.326.326 0 0 1 .065.438.316.316 0 0 1-.444.059.948.948 0 0 0-.563-.189.878.878 0 0 0-.877.853.874.874 0 0 0 .877.848.962.962 0 0 0 .563-.19.323.323 0 0 1 .444.065.328.328 0 0 1-.065.439 1.638 1.638 0 0 1-.942.314A1.5 1.5 0 0 1 0 1.487" transform="translate(57.421 51.16)"/>
                <path id="Fill_92" data-name="Fill 92" class="cls-7" d="M1.427 2.98a1.392 1.392 0 0 1-1.018-.45A1.479 1.479 0 0 1 0 1.487 1.518 1.518 0 0 1 .409.45 1.392 1.392 0 0 1 1.427 0a1.315 1.315 0 0 1 .99.45 1.472 1.472 0 0 1 .416 1.037 1.438 1.438 0 0 1-.416 1.043 1.315 1.315 0 0 1-.99.45zm0-2.335A.863.863 0 0 0 .859.87a.936.936 0 0 0-.213.617.962.962 0 0 0 .213.628.8.8 0 0 0 .568.22.772.772 0 0 0 .545-.22.911.911 0 0 0 .228-.628.888.888 0 0 0-.227-.617.836.836 0 0 0-.546-.225z" transform="translate(60.785 51.16)"/>
                <path id="Fill_93" data-name="Fill 93" class="cls-7" d="M2.478 1.226v1.423a.316.316 0 0 1-.314.314.325.325 0 0 1-.321-.314V1.226a.6.6 0 0 0-1.209.018v1.405l-.006.041v.018l-.017.036v.03a.348.348 0 0 1-.3.19l-.056-.007A.323.323 0 0 1 0 2.649V.32A.314.314 0 0 1 .314 0 .3.3 0 0 1 .6.178 1.252 1.252 0 0 1 1.233 0a1.228 1.228 0 0 1 .931.409A1.217 1.217 0 0 1 3.094 0a1.237 1.237 0 0 1 1.232 1.244v1.405a.316.316 0 0 1-.314.314.321.321 0 0 1-.32-.314V1.244a.606.606 0 0 0-.6-.609.614.614 0 0 0-.616.591" transform="translate(64.623 51.16)"/>
                <path id="Fill_94" data-name="Fill 94" class="cls-3" d="m0 .423 12.752-.1L25.5.282l25.51-.07 25.506.07 12.752.037 12.752.1-12.752.1-12.752.045-25.506.07L25.5.563 12.752.526 0 .423" transform="translate(5.083 14.739)"/>
                <path id="Fill_95" data-name="Fill 95" class="cls-3" d="M0 .423 10.4.32 20.8.283 41.6.212l20.8.07 10.4.037 10.4.1-10.4.1-10.4.037-20.8.071L20.8.563 10.4.526 0 .423" transform="translate(14.499 20.39)"/>
                <path id="Fill_96" data-name="Fill 96" class="cls-1" d="m0 .423 14.023-.1 14.024-.04L56.093.212l28.047.07L98.163.32l14.023.1-14.023.1-14.022.043-28.048.071L28.047.563 14.023.525 0 .423" transform="translate(0 75.476)"/>
                <path id="Fill_97" data-name="Fill 97" class="cls-8" d="M0 13.626h87.789V0H0z" transform="translate(12.199 90.601)"/>
                <path id="Fill_98" data-name="Fill 98" class="cls-5" d="M.183 5.332A.185.185 0 0 1 0 5.149V.183A.188.188 0 0 1 .167 0H1.69a1.523 1.523 0 0 1 .641 2.9l.077.038a1.358 1.358 0 0 1 .715 1.188 2.134 2.134 0 0 0 .068.617.3.3 0 0 0 .076.129h.019A.2.2 0 0 1 3.472 5a.2.2 0 0 1-.121.244l-.092.008h-.014A.426.426 0 0 1 2.9 5a1.9 1.9 0 0 1-.145-.877.953.953 0 0 0-.435-.807 1.681 1.681 0 0 0-.616-.266l-.038-.016H.373v2.11a.187.187 0 0 1-.19.188zM.373.374v2.3h1.348a1.15 1.15 0 0 0-.031-2.3z" transform="translate(27.608 94.536)"/>
                <path id="Fill_99" data-name="Fill 99" class="cls-5" d="M1.814 3.731A1.838 1.838 0 0 1 0 1.874 1.846 1.846 0 0 1 1.814 0a1.829 1.829 0 0 1 1.8 1.737v.031a.171.171 0 0 1-.183.166H.365a1.473 1.473 0 0 0 1.449 1.432 1.409 1.409 0 0 0 1.2-.678.172.172 0 0 1 .154-.088.179.179 0 0 1 .092.025.2.2 0 0 1 .061.259 1.775 1.775 0 0 1-1.507.847zm0-3.367A1.454 1.454 0 0 0 .389 1.576h2.826A1.439 1.439 0 0 0 1.814.365z" transform="translate(32.048 96.135)"/>
                <path id="Fill_100" data-name="Fill 100" class="cls-5" d="M.041 2.955A.182.182 0 0 1 .3 2.932a2.009 2.009 0 0 0 1.143.434 1.123 1.123 0 0 0 .707-.228.566.566 0 0 0 .283-.457.587.587 0 0 0-.267-.457 1.843 1.843 0 0 0-.792-.274l-.015-.008a2.131 2.131 0 0 1-.846-.29.781.781 0 0 1-.4-.67.926.926 0 0 1 .4-.731A1.61 1.61 0 0 1 1.427 0a2.01 2.01 0 0 1 1.112.4.2.2 0 0 1 .053.26.183.183 0 0 1-.251.053 1.632 1.632 0 0 0-.914-.37 1.125 1.125 0 0 0-.709.213.559.559 0 0 0-.235.426.451.451 0 0 0 .217.373 1.865 1.865 0 0 0 .762.259h.015a2.612 2.612 0 0 1 .906.3.934.934 0 0 1 .419.762.946.946 0 0 1-.426.753 1.517 1.517 0 0 1-.929.3A2.264 2.264 0 0 1 .064 3.2a.171.171 0 0 1-.024-.244" transform="translate(36.652 96.135)"/>
                <path id="Fill_101" data-name="Fill 101" class="cls-5" d="M1.814 3.731A1.838 1.838 0 0 1 0 1.874 1.846 1.846 0 0 1 1.814 0a1.829 1.829 0 0 1 1.8 1.737v.031a.171.171 0 0 1-.183.166H.365a1.473 1.473 0 0 0 1.449 1.432 1.409 1.409 0 0 0 1.2-.678.172.172 0 0 1 .154-.088.179.179 0 0 1 .092.025.194.194 0 0 1 .061.259 1.775 1.775 0 0 1-1.507.847zm0-3.367A1.454 1.454 0 0 0 .389 1.576h2.826A1.436 1.436 0 0 0 1.814.365z" transform="translate(40.433 96.135)"/>
                <path id="Fill_102" data-name="Fill 102" class="cls-5" d="M1.691 1.752a.2.2 0 0 1-.183.182h-.48v2.719a.291.291 0 0 0 .274.275.211.211 0 0 1 .19.19.2.2 0 0 1-.192.182.635.635 0 0 1-.656-.648V1.934H.183C0 1.934 0 1.843 0 1.752s0-.183.183-.183h.464V.183A.2.2 0 0 1 .83 0a.206.206 0 0 1 .2.183v1.386h.48a.2.2 0 0 1 .183.183" transform="translate(44.643 94.566)"/>
                <path id="Fill_103" data-name="Fill 103" class="cls-5" d="M.183 5.332A.185.185 0 0 1 0 5.149V.183A.185.185 0 0 1 .183 0H1.69a1.519 1.519 0 0 1 0 3.038l-1.316.017v2.094a.187.187 0 0 1-.191.183zM.374.374v2.307H1.69a1.166 1.166 0 0 0 1.151-1.157A1.152 1.152 0 0 0 1.69.374z" transform="translate(50.446 94.536)"/>
                <path id="Fill_104" data-name="Fill 104" class="cls-5" d="M3.352 3.731a.185.185 0 0 1-.183-.183v-.555a1.751 1.751 0 0 1-1.4.738A1.82 1.82 0 0 1 0 1.866 1.82 1.82 0 0 1 1.767 0a1.743 1.743 0 0 1 1.4.731V.183a.183.183 0 0 1 .365 0v3.366a.185.185 0 0 1-.18.182zM1.767.358a1.459 1.459 0 0 0-1.4 1.507 1.455 1.455 0 0 0 1.4 1.5 1.455 1.455 0 0 0 1.4-1.5 1.459 1.459 0 0 0-1.4-1.507z" transform="translate(54.398 96.135)"/>
                <path id="Fill_105" data-name="Fill 105" class="cls-5" d="M.041 2.955A.182.182 0 0 1 .3 2.932a2.009 2.009 0 0 0 1.143.434 1.127 1.127 0 0 0 .708-.228.567.567 0 0 0 .282-.457.587.587 0 0 0-.267-.457 1.843 1.843 0 0 0-.792-.274l-.015-.008a2.131 2.131 0 0 1-.846-.29.781.781 0 0 1-.4-.67.926.926 0 0 1 .4-.731A1.61 1.61 0 0 1 1.427 0a2.013 2.013 0 0 1 1.112.4.2.2 0 0 1 .053.26.183.183 0 0 1-.251.053 1.632 1.632 0 0 0-.914-.37 1.125 1.125 0 0 0-.709.213.559.559 0 0 0-.235.426.451.451 0 0 0 .217.373 1.865 1.865 0 0 0 .762.259h.015a2.612 2.612 0 0 1 .906.3.934.934 0 0 1 .419.762.946.946 0 0 1-.426.753 1.517 1.517 0 0 1-.929.3A2.264 2.264 0 0 1 .064 3.2a.171.171 0 0 1-.024-.244" transform="translate(59.216 96.135)"/>
                <path id="Fill_106" data-name="Fill 106" class="cls-5" d="M.041 2.955A.181.181 0 0 1 .3 2.932a2.008 2.008 0 0 0 1.142.434 1.128 1.128 0 0 0 .709-.228.567.567 0 0 0 .282-.457.587.587 0 0 0-.267-.457 1.848 1.848 0 0 0-.793-.274l-.014-.008a2.131 2.131 0 0 1-.846-.29.779.779 0 0 1-.4-.67.924.924 0 0 1 .4-.731A1.61 1.61 0 0 1 1.427 0a2.013 2.013 0 0 1 1.112.4.2.2 0 0 1 .053.26.183.183 0 0 1-.251.053 1.632 1.632 0 0 0-.914-.37 1.124 1.124 0 0 0-.709.213.559.559 0 0 0-.235.426.451.451 0 0 0 .217.373 1.865 1.865 0 0 0 .762.259h.015a2.618 2.618 0 0 1 .906.3.934.934 0 0 1 .419.762.946.946 0 0 1-.426.753 1.52 1.52 0 0 1-.93.3A2.263 2.263 0 0 1 .064 3.2a.171.171 0 0 1-.024-.244" transform="translate(62.887 96.135)"/>
                <path id="Fill_107" data-name="Fill 107" class="cls-5" d="m1.491 3.669-.075-.084L.014.25A.185.185 0 0 1 .1.014a.179.179 0 0 1 .236.1l1.247 2.938L2.444 1l.175-.111L2.8 1l.861 2.048L4.9.113a.184.184 0 0 1 .236-.1.182.182 0 0 1 .1.236L3.838 3.57l-.069.091-.092.039h-.038L3.5 3.585l-.008-.008-.873-2.063-.861 2.056-.008.015-.16.114-.069-.015-.031-.015" transform="translate(66.577 96.168)"/>
                <path id="Fill_108" data-name="Fill 108" class="cls-5" d="M1.768 3.731A1.821 1.821 0 0 1 0 1.866 1.821 1.821 0 0 1 1.768 0a1.821 1.821 0 0 1 1.767 1.866 1.821 1.821 0 0 1-1.767 1.865zm0-3.373a1.459 1.459 0 0 0-1.4 1.507 1.455 1.455 0 0 0 1.4 1.5 1.455 1.455 0 0 0 1.4-1.5 1.459 1.459 0 0 0-1.4-1.507z" transform="translate(73.01 96.135)"/>
                <path id="Fill_109" data-name="Fill 109" class="cls-5" d="M0 .182A.182.182 0 0 1 .19 0a.178.178 0 0 1 .176.182v.823L.419.914A1.8 1.8 0 0 1 1.911 0a.179.179 0 0 1 .183.182.185.185 0 0 1-.183.184A1.345 1.345 0 0 0 .83.975a3.368 3.368 0 0 0-.449.868L.366 1.9v1.641a.179.179 0 0 1-.175.183A.182.182 0 0 1 0 3.541V.182" transform="translate(77.793 96.143)"/>
                <path id="Fill_110" data-name="Fill 110" class="cls-5" d="M3.429 5.332a.188.188 0 0 1-.192-.183v-.542a1.764 1.764 0 0 1-1.432.725A1.834 1.834 0 0 1 0 3.474 1.843 1.843 0 0 1 1.805 1.6a1.769 1.769 0 0 1 1.432.731V.183A.188.188 0 0 1 3.429 0a.185.185 0 0 1 .183.183v4.966a.185.185 0 0 1-.183.183zM1.805 1.973a1.469 1.469 0 0 0-1.431 1.5 1.46 1.46 0 0 0 1.431 1.485 1.453 1.453 0 0 0 1.432-1.425v-.121a1.46 1.46 0 0 0-1.432-1.439z" transform="translate(80.694 94.536)"/>
                <path id="Fill_119" data-name="Fill 119" class="cls-9" d="M4.285 2.142A2.142 2.142 0 1 1 2.142 0a2.142 2.142 0 0 1 2.143 2.142" transform="translate(42.007 133.881)"/>
                <path id="Fill_120" data-name="Fill 120" class="cls-7" d="M6.482 3.241A3.241 3.241 0 1 1 3.242 0a3.241 3.241 0 0 1 3.24 3.241" transform="translate(52.852 132.782)"/>
                <path id="Fill_121" data-name="Fill 121" class="cls-9" d="M4.286 2.142A2.143 2.143 0 1 1 2.142 0a2.142 2.142 0 0 1 2.144 2.142" transform="translate(65.894 133.881)"/>
                <path id="Fill_122" data-name="Fill 122" class="cls-3" d="M0 4.913V.419A.418.418 0 0 1 .419 0H2.91a.428.428 0 0 1 .419.419.429.429 0 0 1-.419.426H.845v1.394H2.62a.423.423 0 0 1 0 .845H.845v1.829a.424.424 0 0 1-.426.419A.418.418 0 0 1 0 4.913" transform="translate(23.561)"/>
                <path id="Fill_123" data-name="Fill 123" class="cls-3" d="M1.835 3.831a1.787 1.787 0 0 1-1.309-.578A1.9 1.9 0 0 1 0 1.912 1.949 1.949 0 0 1 .526.58 1.788 1.788 0 0 1 1.835 0a1.688 1.688 0 0 1 1.273.58 1.892 1.892 0 0 1 .534 1.332 1.848 1.848 0 0 1-.534 1.341 1.688 1.688 0 0 1-1.273.578zm0-3a1.1 1.1 0 0 0-.731.29 1.2 1.2 0 0 0-.274.791 1.235 1.235 0 0 0 .274.807A1.027 1.027 0 0 0 1.835 3a.99.99 0 0 0 .7-.283 1.173 1.173 0 0 0 .3-.807 1.138 1.138 0 0 0-.3-.791 1.074 1.074 0 0 0-.7-.288z" transform="translate(27.354 1.523)"/>
                <path id="Fill_124" data-name="Fill 124" class="cls-3" d="M2.346.4a.406.406 0 0 1-.4.4.728.728 0 0 0-.457.145 1.157 1.157 0 0 0-.35.365 2.336 2.336 0 0 0-.312.64V3.4a.415.415 0 0 1-.427.4.406.406 0 0 1-.4-.4v-3A.4.4 0 0 1 .4 0a.408.408 0 0 1 .422.4v.05L.982.3a1.666 1.666 0 0 1 .96-.3.4.4 0 0 1 .4.4" transform="translate(32.136 1.531)"/>
                <path id="Fill_125" data-name="Fill 125" class="cls-3" d="M1.828 5.171a1.783 1.783 0 0 1-.8-.19.4.4 0 0 1-.206-.231.415.415 0 0 1 .39-.55.459.459 0 0 1 .182.038.927.927 0 0 0 .435.106 1.016 1.016 0 0 0 1-.815A1.756 1.756 0 0 1 .533 3.26 1.9 1.9 0 0 1 0 1.92 2.007 2.007 0 0 1 .533.564 1.805 1.805 0 0 1 1.828 0a1.726 1.726 0 0 1 1.021.32.41.41 0 0 1 .4-.32.4.4 0 0 1 .4.4v2.944a1.83 1.83 0 0 1-1.821 1.827zm0-4.356a.915.915 0 0 0-.7.328 1.114 1.114 0 0 0-.3.777 1.1 1.1 0 0 0 .3.785.928.928 0 0 0 .7.311.961.961 0 0 0 .724-.316 1.152 1.152 0 0 0 .288-.78 1.186 1.186 0 0 0-.289-.777.947.947 0 0 0-.723-.328z" transform="translate(35.228 1.523)"/>
                <path id="Fill_126" data-name="Fill 126" class="cls-3" d="M1.835 3.831a1.787 1.787 0 0 1-1.309-.578A1.9 1.9 0 0 1 0 1.912 1.949 1.949 0 0 1 .526.58 1.788 1.788 0 0 1 1.835 0a1.688 1.688 0 0 1 1.273.58 1.892 1.892 0 0 1 .534 1.332 1.848 1.848 0 0 1-.534 1.341 1.688 1.688 0 0 1-1.273.578zm0-3a1.1 1.1 0 0 0-.731.29 1.2 1.2 0 0 0-.274.791 1.235 1.235 0 0 0 .274.807A1.027 1.027 0 0 0 1.835 3a.99.99 0 0 0 .7-.283 1.173 1.173 0 0 0 .3-.807 1.138 1.138 0 0 0-.3-.791 1.074 1.074 0 0 0-.7-.288z" transform="translate(40.33 1.523)"/>
                <path id="Fill_127" data-name="Fill 127" class="cls-3" d="M2.1 1.942a.43.43 0 0 1-.426.419h-.188v2.124a.419.419 0 0 1 .419.427.413.413 0 0 1-.419.419.848.848 0 0 1-.845-.846V2.361H.419a.419.419 0 0 1 0-.838h.222V.419A.419.419 0 0 1 1.067 0a.413.413 0 0 1 .419.419v1.1h.191a.425.425 0 0 1 .426.42" transform="translate(44.731)"/>
                <path id="Fill_128" data-name="Fill 128" class="cls-3" d="M.419 5.332A.425.425 0 0 1 0 4.912V.419A.419.419 0 0 1 .419 0h1.363a1.63 1.63 0 1 1 0 3.26H.845v1.652a.424.424 0 0 1-.426.42zM.845.845v1.57h.937a.785.785 0 1 0 0-1.57z" transform="translate(50.535)"/>
                <path id="Fill_129" data-name="Fill 129" class="cls-3" d="M3.221 3.809a.413.413 0 0 1-.4-.328 1.743 1.743 0 0 1-1.012.328 1.781 1.781 0 0 1-1.3-.556A1.954 1.954 0 0 1 0 1.912 1.926 1.926 0 0 1 .517.572 1.765 1.765 0 0 1 1.813 0a1.729 1.729 0 0 1 1.012.335A.415.415 0 0 1 3.221 0a.409.409 0 0 1 .4.412V3.4a.405.405 0 0 1-.4.409zM1.813.815a.926.926 0 0 0-.709.312 1.117 1.117 0 0 0-.289.784A1.144 1.144 0 0 0 1.1 2.7a.961.961 0 0 0 .709.3.983.983 0 0 0 .708-.3 1.147 1.147 0 0 0 .3-.785 1.119 1.119 0 0 0-.3-.784.947.947 0 0 0-.704-.316z" transform="translate(54.487 1.523)"/>
                <path id="Fill_130" data-name="Fill 130" class="cls-3" d="M.089 2.719a.4.4 0 0 1 .57-.06 1.4 1.4 0 0 0 .839.335 1.024 1.024 0 0 0 .517-.145.313.313 0 0 0 .137-.228l-.022-.077-.1-.091a1.79 1.79 0 0 0-.61-.213h-.006a2.924 2.924 0 0 1-.663-.2 1.273 1.273 0 0 1-.525-.44.923.923 0 0 1-.126-.48A1.073 1.073 0 0 1 .546.282 1.645 1.645 0 0 1 1.483 0a1.961 1.961 0 0 1 1.143.42.42.42 0 0 1 .121.563.4.4 0 0 1-.564.107 1.3 1.3 0 0 0-.7-.282.776.776 0 0 0-.457.137.23.23 0 0 0-.121.175l.014.061.081.076a1.553 1.553 0 0 0 .556.183l.008.008h.008a2.735 2.735 0 0 1 .707.221 1.181 1.181 0 0 1 .542.449 1 1 0 0 1 .145.5 1.1 1.1 0 0 1-.48.883 1.737 1.737 0 0 1-.99.3 2.213 2.213 0 0 1-1.353-.518.407.407 0 0 1-.053-.564" transform="translate(59.333 1.523)"/>
                <path id="Fill_131" data-name="Fill 131" class="cls-3" d="M.09 2.719a.4.4 0 0 1 .57-.06 1.4 1.4 0 0 0 .839.335 1.024 1.024 0 0 0 .517-.145.313.313 0 0 0 .137-.228l-.022-.077-.1-.091a1.784 1.784 0 0 0-.609-.213h-.007a2.924 2.924 0 0 1-.663-.2 1.273 1.273 0 0 1-.525-.44.923.923 0 0 1-.127-.48A1.073 1.073 0 0 1 .547.282 1.645 1.645 0 0 1 1.483 0a1.963 1.963 0 0 1 1.143.42.42.42 0 0 1 .121.563.4.4 0 0 1-.564.107 1.3 1.3 0 0 0-.7-.282.776.776 0 0 0-.457.137.232.232 0 0 0-.126.175l.015.061.085.076a1.553 1.553 0 0 0 .556.183l.008.008h.007a2.731 2.731 0 0 1 .708.221 1.185 1.185 0 0 1 .542.449 1 1 0 0 1 .145.5 1.1 1.1 0 0 1-.481.883 1.732 1.732 0 0 1-.989.3 2.211 2.211 0 0 1-1.353-.518.406.406 0 0 1-.053-.564" transform="translate(63.003 1.523)"/>
                <path id="Fill_132" data-name="Fill 132" class="cls-3" d="M5.107.557 3.851 3.512l-.03.061-.008.008-.038.046-.015.008-.046.038-.008.015-.069.038-.008.008-.061.015h-.015l-.075.008-.069-.008h-.015l-.054-.017-.008-.008h-.007l-.069-.046v-.007l-.046-.038-.01-.007-.042-.046-.008-.008-.03-.061-.556-1.317-.542 1.318-.038.061v.007l-.046.046-.008.008-.046.046-.068.046H1.8l-.008.008-.045.015h-.014l-.076.008-.077-.009h-.023l-.046-.015-.011-.008-.069-.046-.011-.008-.046-.038-.015-.008-.029-.045-.008-.008-.038-.061L.034.557A.394.394 0 0 1 .255.031a.377.377 0 0 1 .5.228l.9 2.048.535-1.271a.407.407 0 0 1 .374-.243.391.391 0 0 1 .373.244l.541 1.272L4.376.26a.381.381 0 0 1 .511-.229.4.4 0 0 1 .22.525" transform="translate(66.698 1.576)"/>
                <path id="Fill_133" data-name="Fill 133" class="cls-3" d="M1.836 3.831a1.785 1.785 0 0 1-1.31-.579A1.9 1.9 0 0 1 0 1.912 1.949 1.949 0 0 1 .526.58 1.786 1.786 0 0 1 1.836 0a1.691 1.691 0 0 1 1.273.58 1.9 1.9 0 0 1 .533 1.332 1.851 1.851 0 0 1-.533 1.341 1.691 1.691 0 0 1-1.273.578zm0-3a1.106 1.106 0 0 0-.732.29 1.2 1.2 0 0 0-.274.791 1.235 1.235 0 0 0 .274.807A1.032 1.032 0 0 0 1.836 3a.993.993 0 0 0 .7-.283 1.177 1.177 0 0 0 .3-.807 1.141 1.141 0 0 0-.3-.791 1.076 1.076 0 0 0-.7-.288z" transform="translate(73.098 1.523)"/>
                <path id="Fill_134" data-name="Fill 134" class="cls-3" d="M2.347.4a.407.407 0 0 1-.4.4.728.728 0 0 0-.457.145 1.148 1.148 0 0 0-.35.365 2.336 2.336 0 0 0-.312.64V3.4a.415.415 0 0 1-.428.4.407.407 0 0 1-.4-.4v-3A.4.4 0 0 1 .4 0a.408.408 0 0 1 .423.4v.05L.983.3a1.664 1.664 0 0 1 .96-.3.4.4 0 0 1 .4.4" transform="translate(77.881 1.531)"/>
                <path id="Fill_135" data-name="Fill 135" class="cls-3" d="M3.29 5.332A.408.408 0 0 1 2.887 5a1.861 1.861 0 0 1-1.037.328A1.876 1.876 0 0 1 0 3.434a1.884 1.884 0 0 1 1.85-1.911 1.789 1.789 0 0 1 1.022.32V.411a.415.415 0 0 1 .83 0V4.92a.417.417 0 0 1-.412.412zM1.85 2.354a.983.983 0 0 0-.715.312 1.083 1.083 0 0 0-.306.769 1.068 1.068 0 0 0 .306.754.976.976 0 0 0 1.431 0 1.071 1.071 0 0 0 .305-.754 1.086 1.086 0 0 0-.305-.769.978.978 0 0 0-.716-.312z" transform="translate(80.783)"/>
                <path id="Fill_136" data-name="Fill 136" class="cls-3" d="M1.432 5.332a.374.374 0 0 1-.373-.373v-.138a.379.379 0 0 1 .373-.373.369.369 0 0 1 .373.373v.137a.365.365 0 0 1-.373.374zm0-1.31a.374.374 0 0 1-.373-.374v-.792l.007-.015-.007-.014a.383.383 0 0 1 .374-.373A.861.861 0 0 0 2.3 1.6a.852.852 0 0 0-.868-.854.843.843 0 0 0-.732.42.378.378 0 0 1-.328.19.383.383 0 0 1-.19-.056.371.371 0 0 1-.129-.508 1.6 1.6 0 0 1 2.985.808A1.592 1.592 0 0 1 1.8 3.153v.495a.365.365 0 0 1-.368.374z" transform="translate(85.687)"/>
            </g>
            <path id="Fill_111" data-name="Fill 111" class="cls-6" d="M39.211 19.6A19.605 19.605 0 1 1 19.605 0a19.6 19.6 0 0 1 19.606 19.6" transform="translate(310.744 71.329)"/>
            <path id="Fill_112" data-name="Fill 112" class="cls-1" d="M26.786 13.39A13.393 13.393 0 1 1 13.393 0a13.392 13.392 0 0 1 13.393 13.39" transform="translate(264.847 105.812)"/>
            <path id="Fill_113" data-name="Fill 113" class="cls-7" d="M26.062 13.883v14.058h-3.973V13.883c0-5.347-4.062-9.693-9.057-9.693s-9.058 4.346-9.058 9.693v14.058H0V13.883C0 6.226 5.846 0 13.032 0s13.03 6.226 13.03 13.883" transform="translate(292.333 73.392)"/>
            <path id="Fill_114" data-name="Fill 114" class="cls-10" d="m0 0 3.974.16V10.4H0V0" transform="translate(292.333 90.931)"/>
            <path id="Fill_115" data-name="Fill 115" class="cls-10" d="M3.974.162V9.5H0V0l3.974.162" transform="translate(314.421 91.829)"/>
            <path id="Fill_116" data-name="Fill 116" class="cls-2" d="M0 32.878h36.248V0H0z" transform="translate(287.24 93.329)"/>
            <path id="Fill_117" data-name="Fill 117" d="M0 32.878h18.124V0H0z" transform="translate(305.364 93.329)" style="fill:#ecad30"/>
            <path id="Fill_118" data-name="Fill 118" class="cls-3" d="m4.922 5.939 1.517 7.2H0l1.517-7.2a3.22 3.22 0 1 1 3.4 0" transform="translate(301.975 105.033)"/>
            <path id="Fill_137" data-name="Fill 137" class="cls-9" d="m0 0 2.008 12.039 13.6 73.448H17.8L7.912 12.039 6.45 0H0" transform="translate(100.262 232.875)"/>
            <path id="Fill_138" data-name="Fill 138" class="cls-10" d="M6.45 0H0l2.008 12.039h5.9L6.45 0" transform="translate(100.262 232.875)"/>
            <path id="Fill_139" data-name="Fill 139" class="cls-9" d="M0 85.487h2.192L15.8 12.039 17.8 0h-6.45L9.892 12.039 0 85.487" transform="translate(57.544 232.875)"/>
            <path id="Fill_140" data-name="Fill 140" class="cls-10" d="M1.462 0 0 12.039h5.9L7.912 0h-6.45" transform="translate(67.436 232.875)"/>
            <path id="Fill_141" data-name="Fill 141" class="cls-9" d="M0 85.487h2.193L15.8 12.039 17.8 0h-6.45L9.892 12.039 0 85.487" transform="translate(16.742 232.875)"/>
            <path id="Fill_142" data-name="Fill 142" class="cls-10" d="M0 12.039h5.9L7.912 0H1.461L0 12.039" transform="translate(26.634 232.875)"/>
            <path id="Fill_143" data-name="Fill 143" class="cls-9" d="M0 65.19h99.679v-10.5H62.364L49.823 0H3.8L0 65.19" transform="translate(20.22 173.341)"/>
            <path id="Fill_144" data-name="Fill 144" class="cls-10" d="M0 65.19h5.434L8.975 0H3.8L0 65.19" transform="translate(20.22 173.341)"/>
            <path id="Fill_145" data-name="Fill 145" class="cls-12" d="M54.884 60.529C53 60.763 1.683 48.793.016 47.178c-.2-.179 1.6-10.1 1.6-10.1C2.425 33.019 16.411 0 16.411 0l33.551 8.275-14.218 30.673s6.4 4.328 11.894 8.455l.012.019a73.359 73.359 0 0 1 6.95 5.56c1.631 1.953 2.158 7.326.281 7.547" transform="translate(64.249 267.131)"/>
            <path id="Fill_146" data-name="Fill 146" class="cls-1" d="M.016 22.985c1.667 1.615 52.995 13.587 54.873 13.35 1.878-.22 1.345-5.593-.279-7.546a74.622 74.622 0 0 0-6.955-5.558l-.017-.017c-5.492-4.129-11.888-8.46-11.888-8.46l3.165-6.836L6.4 0C3.942 6.133 1.92 11.412 1.624 12.884c0 0-1.811 9.923-1.608 10.1" transform="translate(64.246 291.322)"/>
            <path id="Fill_147" data-name="Fill 147" class="cls-6" d="M55.541 30.795C53.6 31 1.862 19.4.175 17.713c-.652-.632.6-8.257 2.379-17.426.019-.1.04-.191.058-.287l33.461 7.108-.14.563s17.815 13.28 19.475 15.336c1.645 2.046 2.076 7.593.133 7.788" transform="translate(63.739 297.011)"/>
            <path id="Fill_148" data-name="Fill 148" class="cls-3" d="M52.609 11.581C43.937 9.412 8.751 1.486.013 0L0 .055c8.55 2.336 43.8 9.978 52.577 11.669.185.036.215-.1.031-.143" transform="translate(66.536 314.091)"/>
            <path id="Fill_149" data-name="Fill 149" class="cls-3" d="M10.83 1.212C7.542-.2 3.226-.611.055 1.242c-.123.072-.019.246.1.236a49.5 49.5 0 0 1 10.563.164.225.225 0 0 0 .111-.431" transform="translate(92.676 303.834)"/>
            <path id="Fill_150" data-name="Fill 150" class="cls-3" d="M10.83 1.212C7.542-.2 3.226-.61.055 1.242c-.123.072-.019.246.1.236a49.5 49.5 0 0 1 10.563.164.225.225 0 0 0 .112-.431" transform="translate(94.818 305.879)"/>
            <path id="Fill_151" data-name="Fill 151" class="cls-3" d="M10.83 1.212C7.542-.2 3.226-.611.055 1.242c-.123.072-.019.245.1.236a49.446 49.446 0 0 1 10.563.164.225.225 0 0 0 .111-.431" transform="translate(96.96 307.925)"/>
            <path id="Fill_152" data-name="Fill 152" class="cls-3" d="M.44 8.012a.356.356 0 0 1-.28-.133.531.531 0 0 1-.106-.419L0 7.318A18.668 18.668 0 0 1 7.051.653 5.807 5.807 0 0 1 9.623 0a2.794 2.794 0 0 1 2.76 1.658A2.682 2.682 0 0 1 12.02 4.4a5.973 5.973 0 0 1-2.272 1.8 22.355 22.355 0 0 1-7.187 1.569c-.682.073-1.386.148-2.065.239a.421.421 0 0 1-.056.004zm9.348-6.943a6.609 6.609 0 0 0-2.812.707A20.31 20.31 0 0 0 4.717 3.33a39.807 39.807 0 0 0-3.273 2.915c-.3.291-.617.592-.93.886.952-.188 1.926-.325 2.867-.458a73.741 73.741 0 0 0 1.639-.24l.169-.027c1.845-.292 5.278-.837 6.052-2.774a2.137 2.137 0 0 0 .084-1.971 1.763 1.763 0 0 0-1.537-.592z" transform="translate(97.265 296.915)"/>
            <path id="Fill_153" data-name="Fill 153" class="cls-3" d="M11.106 9.626a.39.39 0 0 1-.12-.02c-.656-.215-1.341-.42-2-.618A22.319 22.319 0 0 1 2.22 6.135 5.967 5.967 0 0 1 .314 3.956 2.682 2.682 0 0 1 .458 1.2 2.644 2.644 0 0 1 2.753 0a5.366 5.366 0 0 1 3.132 1.181A18.651 18.651 0 0 1 11.6 9.017l-.078.13a.465.465 0 0 1-.416.479zm-8.574-8.6a1.345 1.345 0 0 0-1.1.432 2.266 2.266 0 0 0-.213 1.882C1.628 5.392 4.9 6.552 6.665 7.175l.159.056c.526.187 1.061.366 1.578.539.9.3 1.828.612 2.727.969-.26-.355-.521-.718-.773-1.069a39.347 39.347 0 0 0-2.661-3.43A20.179 20.179 0 0 0 5.753 2.3a6.138 6.138 0 0 0-3.222-1.269z" transform="translate(86.525 295.248)"/>
            <path id="Fill_154" data-name="Fill 154" d="M15.026 13.463c-.855 0-6.613-1.142-15.026-2.981h.007c8.407 1.839 14.163 2.981 15.023 2.981a.587.587 0 0 0 .061 0 1.031 1.031 0 0 0 .727-.431 2.058 2.058 0 0 0 .285-.538 2 2 0 0 1-.284.54 1.034 1.034 0 0 1-.729.432.581.581 0 0 1-.064-.003zM9.652 1.161C9.19.8 8.695.407 8.18 0c.505.392 1 .781 1.473 1.155z" transform="translate(104.192 314.349)" style="fill:#acaeab"/>
            <path id="Fill_155" data-name="Fill 155" class="cls-8" d="M15.023 13.455c-.918 0-7.1-1.249-15.023-2.981L1.416 8.66c5.915 1.264 10.885 2.3 13.5 2.8a.3.3 0 0 0 .058.006c.132 0 .136-.108-.026-.149-2.551-.638-7.4-1.774-13.189-3.1L8.176 0c1.152.9 2.245 1.765 3.207 2.542a34.854 34.854 0 0 1 3.565 3.123 7.576 7.576 0 0 1 1.289 3.361c.344 2.126.052 4.306-1.152 4.427h-.062" transform="translate(104.195 314.353)"/>
            <path id="Fill_156" data-name="Fill 156" d="M13.56 3.247a.3.3 0 0 1-.058-.006C10.885 2.737 5.915 1.7 0 .44L.344 0c5.792 1.324 10.638 2.46 13.189 3.1.162.041.158.149.026.149" transform="translate(105.611 322.574)" style="fill:#09181b"/>
            <path id="Fill_157" data-name="Fill 157" class="cls-15" d="m61.04 121.573-35.614-8.4s29.723-68.104 27.111-71.567c-1.307-1.731-34.466-2.241-45.011-11.173C-6.173 18.828 3.017 1.1 3.017 1.1L40.049 0s-.447 7.734 1 8.9c.951.777 45.075 4.484 49.921 19.352 5.943 18.229-29.93 93.321-29.93 93.321" transform="translate(41.192 183.373)"/>
            <path id="Fill_158" data-name="Fill 158" class="cls-3" d="M32.044 8.279c-.933-.442-10.155-3.143-12.225-3.672-4.168-1.068-8.343-2.112-12.539-3.068C5.094 1.041.407-.049.119 0-.019.027-.044.26.081.3c4.064 1.342 8.186 2.475 12.307 3.619S30.7 8.484 31.945 8.564c.12.008.231-.222.1-.285" transform="translate(70.177 291.16)"/>
            <path id="Fill_159" data-name="Fill 159" class="cls-3" d="M54.375 34.917a5.653 5.653 0 0 0-2.795-.869q-8.019-1.339-16.035-2.688c-5-.837-10.031-1.585-15.01-2.545-4.123-.794-8.315-1.866-11.882-4.1a17.211 17.211 0 0 1-7.283-9.522 30.736 30.736 0 0 1-.942-12.2C.525 2 .707 1.007.893.025L.775 0C-.581 7.582-.7 16.383 4.985 22.426c2.773 2.946 6.582 4.676 10.469 5.8a118.986 118.986 0 0 0 13.467 2.615q8.019 1.341 16.038 2.676c2.572.426 5.184.761 7.736 1.3a2.632 2.632 0 0 1 1.394.615 1.993 1.993 0 0 1 .226 1.853c-.258 1.259-.6 2.5-.96 3.738-2.918 9.953-24.458 60.744-25.037 61.837-.061.114.12.2.184.091 4.905-8.731 21.023-48.705 24.261-58.122a59.488 59.488 0 0 0 2.1-7.328 2.494 2.494 0 0 0-.49-2.575" transform="translate(45.688 186.997)"/>
            <path id="Fill_160" data-name="Fill 160" class="cls-12" d="M58.165 52.131c-1.8.6-53.16-.119-55.116-1.371C.909 48.724 0 .273 0 .273L33.045 0l2.06 34.787s7.131 2.969 13.341 5.92l.015.016a73.857 73.857 0 0 1 7.923 4.067c1.987 1.59 3.575 6.751 1.779 7.341" transform="translate(113.941 277.771)"/>
            <path id="Fill_161" data-name="Fill 161" class="cls-1" d="M0 0c.491 10.889 1.193 20.931 2.149 21.827 1.955 1.252 53.325 1.98 55.118 1.37 1.794-.583.212-5.744-1.777-7.335a74.286 74.286 0 0 0-7.928-4.068l-.008-.018C41.343 8.824 34.21 5.854 34.21 5.854L33.863 0H0" transform="translate(114.837 306.701)"/>
            <path id="Fill_162" data-name="Fill 162" class="cls-6" d="M58.308 18.971c-1.855.615-54.876.36-56.887-.931C.649 17.563.235 9.847 0 .51V.217L34.208 0l-.015.58s20.251 9.16 22.314 10.813c2.046 1.645 3.658 6.972 1.8 7.578" transform="translate(114.849 310.967)"/>
            <path id="Fill_163" data-name="Fill 163" class="cls-3" d="M53.86.406C44.923.144 8.853-.071 0 .348V.4c8.852.457 44.921.38 53.859.152.189-.005.19-.14 0-.146" transform="translate(118.708 327.477)"/>
            <path id="Fill_164" data-name="Fill 164" class="cls-3" d="M10.555.269C7.041-.4 2.736.115.037 2.605c-.1.1.034.243.148.207A49.483 49.483 0 0 1 10.539.713a.225.225 0 0 0 .016-.444" transform="translate(142.31 310.813)"/>
            <path id="Fill_165" data-name="Fill 165" class="cls-3" d="M10.554.269C7.041-.4 2.737.115.037 2.6c-.1.1.035.244.149.208A49.486 49.486 0 0 1 10.538.713a.225.225 0 0 0 .016-.444" transform="translate(144.842 312.353)"/>
            <path id="Fill_166" data-name="Fill 166" class="cls-3" d="M10.555.269C7.041-.4 2.736.115.037 2.6c-.1.1.034.244.148.209A49.562 49.562 0 0 1 10.539.712a.224.224 0 0 0 .016-.443" transform="translate(147.373 313.893)"/>
            <path id="Fill_167" data-name="Fill 167" class="cls-3" d="M.5 9.894a.465.465 0 0 1-.418-.466L0 9.3a18.644 18.644 0 0 1 5.455-8.017A5.4 5.4 0 0 1 8.658 0a2.6 2.6 0 0 1 2.222 1.123 2.681 2.681 0 0 1 .234 2.753 5.971 5.971 0 0 1-1.834 2.24A22.317 22.317 0 0 1 2.6 9.192a76.24 76.24 0 0 0-1.97.677.386.386 0 0 1-.13.025zm8.381-8.87a5.994 5.994 0 0 0-3.257 1.371 20.162 20.162 0 0 0-1.874 2A39.426 39.426 0 0 0 1.2 7.918c-.241.36-.489.729-.736 1.091.893-.389 1.818-.732 2.712-1.064.506-.188 1.029-.382 1.542-.583l.154-.062c1.739-.68 4.976-1.946 5.318-4.006a2.289 2.289 0 0 0-.263-1.86 1.3 1.3 0 0 0-1.046-.41z" transform="translate(146.595 302.323)"/>
            <path id="Fill_168" data-name="Fill 168" class="cls-3" d="M12.325 7.713h-.042c-.686-.07-1.4-.123-2.087-.174A22.321 22.321 0 0 1 2.975 6.2 5.982 5.982 0 0 1 .646 4.475a2.681 2.681 0 0 1-.452-2.726A2.826 2.826 0 0 1 3.046 0a5.894 5.894 0 0 1 2.446.572A18.689 18.689 0 0 1 12.755 7l-.049.143a.527.527 0 0 1-.1.428.355.355 0 0 1-.281.142zM2.91 1.074a1.869 1.869 0 0 0-1.649.63A2.116 2.116 0 0 0 1.4 3.686C2.238 5.6 5.692 6.03 7.547 6.262l.161.02c.55.069 1.109.13 1.65.188.945.1 1.921.208 2.877.364-.324-.286-.65-.578-.965-.861a39.6 39.6 0 0 0-3.36-2.8A19.993 19.993 0 0 0 5.6 1.691a6.726 6.726 0 0 0-2.69-.617z" transform="translate(134.685 304.467)"/>
            <path id="Fill_169" data-name="Fill 169" class="cls-15" d="m114.918 128.42-37.269.011s.472-67.231-2.449-70.96C71.306 52.5 16.818 52.614 5.131 36.4-5.366 21.834 3.494 1.223 3.494 1.223L44.758 0a84.809 84.809 0 0 1-3.825 12.974s49.707 9.16 63.632 24.383c9.4 10.275 10.352 91.063 10.352 91.063" transform="translate(35.965 182.948)"/>
            <path id="Fill_170" data-name="Fill 170" class="cls-3" d="M13.515 0a19.841 19.841 0 0 0-3.5 1.12 42.996 42.996 0 0 0-3.491 1.518A69.278 69.278 0 0 0 0 6.328l.064.1C2.3 5.268 4.6 4.226 6.911 3.233q1.667-.718 3.334-1.433A35.225 35.225 0 0 0 13.616.31c.14-.078.063-.337-.1-.308" transform="translate(70.64 193.096)"/>
            <path id="Fill_171" data-name="Fill 171" class="cls-3" d="M5.732.133c-.472 1.88-.887 3.776-1.425 5.639-.247.854-.491 1.725-.815 2.554-.273.7-.687 1.5-1.5 1.656-.935.181-1.2-.618-1.126-1.39.085-.861.305-1.723.476-2.57.2-.977.394-1.953.572-2.933C2 2.6 2.1 2.11 2.18 1.619 2.2 1.5 2.292.556 2.359.287l.052.041.033-.005L2.5.275 2.454.134 2.368.127c-.179.1-.191.343-.25.523-.151.476-.307.951-.446 1.431-.261.9-.514 1.8-.744 2.7S.479 6.6.255 7.505a4.234 4.234 0 0 0-.181 2.089 1.6 1.6 0 0 0 1.479 1.2l-.1.184c-.082.184-.143.382-.212.572s-.137.388-.193.588a1.711 1.711 0 0 0-.054.291c-.013.109.01.216 0 .325a.157.157 0 0 0 .292.1c.05-.1.122-.172.176-.264a1.7 1.7 0 0 0 .135-.315c.063-.189.118-.376.166-.569s.106-.381.141-.574c.021-.114.025-.231.036-.347a2.161 2.161 0 0 0 1.086-.413 3.627 3.627 0 0 0 1.121-1.709c.284-.783.5-1.594.725-2.4a35.264 35.264 0 0 0 1.2-6.06.175.175 0 0 0-.34-.07" transform="translate(75.95 182.797)"/>
            <path id="Fill_172" data-name="Fill 172" class="cls-3" d="M13.574.07C13.4 1 13.3 1.946 13.08 2.872c-.212.905-.457 1.81-.756 2.69a9.609 9.609 0 0 1-1.148 2.425 9.111 9.111 0 0 1-1.828 1.859 15.641 15.641 0 0 1-4.424 2.459 20.808 20.808 0 0 1-2.458.719 13.3 13.3 0 0 1-1.313.229 2.769 2.769 0 0 0-1.059.247.213.213 0 0 0 .02.365 3.825 3.825 0 0 0 1.956.062 14.33 14.33 0 0 0 2.09-.366A15.183 15.183 0 0 0 8.112 11.9a12.449 12.449 0 0 0 3.3-2.7 9.337 9.337 0 0 0 1.765-3.864 19.008 19.008 0 0 0 .578-5.251.092.092 0 0 0-.18-.015" transform="translate(43.568 187.463)"/>
            <path id="Fill_173" data-name="Fill 173" class="cls-3" d="M78.516 78.338q-.551-8.775-1.46-17.522c-.15-1.437-.294-2.877-.472-4.312a13.567 13.567 0 0 0-.725-3.277 6.5 6.5 0 0 0-4.894-3.856c-2.606-.659-5.3-1.052-7.956-1.48-2.711-.44-5.431-.832-8.151-1.211-5.509-.766-11.029-1.475-16.514-2.4a131.712 131.712 0 0 1-16.2-3.643c-4.875-1.469-9.874-3.287-13.775-6.664C-.033 26.707-.341 14.526.685 4.336c.146-1.439.322-2.874.5-4.309L1.066 0C.4 5.739-.372 11.514.2 17.295a28.2 28.2 0 0 0 4.591 13.4c2.842 4.073 7.054 6.7 11.6 8.538a91.223 91.223 0 0 0 15.457 4.447c10.891 2.277 22 3.242 32.959 5.116q2.028.348 4.047.739a16.65 16.65 0 0 1 3.65.976c2.489 1.112 3.174 3.53 3.482 6.03.716 5.8 1.2 11.647 1.622 17.478.848 11.755 1.3 23.573 1.276 35.36 0 1.454-.013 6.347-.026 7.8 0 .13.2.118.2-.01.356-11.8.2-27.04-.541-38.827" transform="translate(40.461 186.396)"/>
            <path id="Fill_174" data-name="Fill 174" class="cls-3" d="M33.063.4C24.563-.174.348.061.081.181c-.128.058-.1.29.036.3C4.386.787 31.81.93 33.037.7c.118-.021.172-.29.026-.3" transform="translate(116.077 305.118)"/>
            <path id="Fill_175" data-name="Fill 175" class="cls-3" d="M.256 0a138.957 138.957 0 0 1 22.51 4.613 157.411 157.411 0 0 1 21.722 7.852c3.947 1.772 7.769 3.753 11.559 5.835l-.069.112A176.371 176.371 0 0 0 34.854 9.2a170.255 170.255 0 0 0-22-6.377C8.653 1.914 4.419 1.2.176.5-.1.452-.029-.03.256 0" transform="translate(76.9 196.024)"/>
            <path id="Fill_176" data-name="Fill 176" class="cls-3" d="M22.335 19.687c-.268-4.051-.688-8.091-1.349-12.1-.267-1.619-.343-3.71-2.037-4.514C18.157 2.7 2.367-.043.1 0 0 0-.044.153.054.2c.206.091 15.214 2.929 17.12 3.378a3 3 0 0 1 2.109 1.095 7.73 7.73 0 0 1 .64 2.6 166.557 166.557 0 0 1 2.093 23.771c.061 2.2.095 4.405.113 6.608.019 2.262-.078 4.554.094 6.809a.185.185 0 0 0 .37-.009c.174-2.052.11-4.138.124-6.194s.019-4.133.008-6.2c-.022-4.125-.116-8.252-.388-12.369" transform="translate(91.125 235.763)"/>
            <path id="Fill_177" data-name="Fill 177" class="cls-12" d="M2.945 8.923C13.617 23.105 38.96 43.052 44.9 38.414c7.311-5.7 5.953-26.685 6.106-29.38.164-2.891-23.807-2.161-22.846.786.568 1.743.835 3.61.385 3.433-1.414-.555-4.55-3.373-18.168-11C2.794-2-4.121-.467 2.945 8.923" transform="translate(75.897 136.837)"/>
            <path id="Fill_178" data-name="Fill 178" class="cls-6" d="M26.065 11.519 13.434 23.913S5.42 16.142 1.95 9.739C-.594 5.027-.673 1.053 1.854.184A5.632 5.632 0 0 1 5.6.543c9.081 3.4 20.461 10.976 20.461 10.976" transform="translate(74.62 135.054)"/>
            <path id="Fill_179" data-name="Fill 179" class="cls-3" d="M11.011 0C8.765 2.044.646 9.636 0 10.953l.091.091c1.322-.637 8.99-8.683 11.05-10.913L11.011 0" transform="translate(86.42 145.133)"/>
            <path id="Fill_180" data-name="Fill 180" class="cls-3" d="m20.472 16.822-7.038 6.907S5.42 15.959 1.95 9.555C-.594 4.843-.673.87 1.854 0l18.618 16.822" transform="translate(74.62 135.237)"/>
            <path id="Fill_181" data-name="Fill 181" class="cls-12" d="M25.047 7.575c1.356 4.6.449 15.083-.742 17.529s-19.072 1.5-20.662-.8S-1.311 6.181.542 1.656s23.1 1.156 24.505 5.919" transform="translate(101.874 125.454)"/>
            <path id="Fill_182" data-name="Fill 182" class="cls-12" d="M7.168 7.406C6.391 5.321 2.637-.639.829.056s-.2 5.41.514 7.3c1.476 3.9 1.433 9.667 1.361 12.457s6.452.036 6.452.036.022-7.046-1.989-12.448" transform="translate(99.253 109.41)"/>
            <path id="Fill_183" data-name="Fill 183" class="cls-12" d="M.007 14.7s-.254 4.919 2.362 5.938c2.525.974 3.531-2.92 3.606-3.2-.011.261-.126 4.787 2.609 5.54 2.842.779 3.181-3.3 3.2-3.566.066.249 1 3.529 3.211 3.628 3.793.169 1.628-8.282 3.3-10.859 0 0 4.692 2.342 4.843 2.381 0 0-1.9-8.083-5.5-10.148a2.652 2.652 0 0 0-3.29.465S14.033 2.2 11.9 1.541C10.8 1.206 9.29 2.66 9.29 2.66A3.323 3.323 0 0 0 7.006.061C5.464-.318 3.972 1.17 3.593 1.829.668 6.9.007 14.7.007 14.7" transform="translate(103.778 118.47)"/>
            <path id="Fill_184" data-name="Fill 184" class="cls-3" d="M4.027.036 3.965 0A23.622 23.622 0 0 0 .017 13.49c.007.152.256.207.281.039A48.344 48.344 0 0 1 4.027.036" transform="translate(103.699 119.842)"/>
            <path id="Fill_185" data-name="Fill 185" class="cls-3" d="M3.711.038 3.622 0A22.127 22.127 0 0 0 .23 14.984c.03.182.239.316.221.1C.145 11.511 1.877 4.041 3.711.038" transform="translate(109.354 121.019)"/>
            <path id="Fill_186" data-name="Fill 186" class="cls-3" d="M.9 14.768C.267 9.641 1.345 4.827 3.163.042L3.062 0C1.535 2.1.694 5.269.248 7.792a13.62 13.62 0 0 0 .47 7c.03.091.193.088.179-.022" transform="translate(114.854 123.461)"/>
            <path id="Fill_187" data-name="Fill 187" class="cls-3" d="M.029 2.518A15.467 15.467 0 0 0 .4 5.331a5.2 5.2 0 0 0 1.177 2.448 1.713 1.713 0 0 0 1.11.521 2.486 2.486 0 0 0 1.236-.248 3.035 3.035 0 0 0 1.431-2.016l.494-2.023.239 2.072a8.532 8.532 0 0 0 .733 2.66 3.047 3.047 0 0 0 1.78 1.742 1.741 1.741 0 0 0 2.067-.727 5.271 5.271 0 0 0 .725-2.536l.146-2.463.664 2.365A8.025 8.025 0 0 0 13 9.006a3.29 3.29 0 0 0 1.341 1.351 1.567 1.567 0 0 0 1.644-.169 3.467 3.467 0 0 0 .9-1.718 27.207 27.207 0 0 0 .576-4.238c.066-.719.132-1.442.233-2.161A5.153 5.153 0 0 1 18.323 0a5.527 5.527 0 0 0-.423 2.093c-.046.717-.056 1.437-.068 2.159a23.18 23.18 0 0 1-.363 4.36 4.048 4.048 0 0 1-1.013 2.095 2.224 2.224 0 0 1-2.417.343 4.029 4.029 0 0 1-1.708-1.631 8.746 8.746 0 0 1-.918-2.082l.811-.1a6.044 6.044 0 0 1-.828 3 2.527 2.527 0 0 1-1.345 1.063 2.851 2.851 0 0 1-1.687-.014 3.845 3.845 0 0 1-2.257-2.2 9.257 9.257 0 0 1-.76-2.939l.733.049a3.628 3.628 0 0 1-1.9 2.4 3.061 3.061 0 0 1-1.544.226A2.2 2.2 0 0 1 1.248 8.1 5.335 5.335 0 0 1 .156 5.381a12.746 12.746 0 0 1-.127-2.863" transform="translate(103.756 130.648)"/>
            <path id="Fill_188" data-name="Fill 188" class="cls-12" d="M7.308 17.969S-5.657 2.3 2.95.237C5.507-.377 16.744.154 16.682 2.412c-.082 2.916-4.813 3.57-7.849 3.509 0 0 5.161 4.708 2.953 9.277a5.039 5.039 0 0 1-4.478 2.771" transform="translate(97.162 129.196)"/>
            <path id="Fill_189" data-name="Fill 189" class="cls-3" d="M0 .725A10.636 10.636 0 0 1 3.033.088 23.025 23.025 0 0 1 6.145.024a35.752 35.752 0 0 1 6.193.739 5.867 5.867 0 0 1 1.554.567 2.189 2.189 0 0 1 .712.621 1.55 1.55 0 0 1 .237.464 1.617 1.617 0 0 1 .063.512A2.615 2.615 0 0 1 14.2 4.6a4.908 4.908 0 0 1-1.375 1 9.4 9.4 0 0 1-3.1.838 21.353 21.353 0 0 1-3.141.121l.243-.63a12.605 12.605 0 0 1 1.536 1.818 11.631 11.631 0 0 1 1.158 2.064 8.017 8.017 0 0 1 .592 2.286 6.091 6.091 0 0 1-.191 2.322 6.878 6.878 0 0 0-.057-2.286A8.311 8.311 0 0 0 9.107 10 11.065 11.065 0 0 0 7.89 8.1a12.034 12.034 0 0 0-1.54-1.638l-.7-.6.942-.025a22.777 22.777 0 0 0 3.02-.211 9.17 9.17 0 0 0 2.825-.8c.828-.417 1.592-1.118 1.606-1.913.073-.7-.978-1.115-1.911-1.359A29.557 29.557 0 0 0 9.15.966 47.383 47.383 0 0 0 6.109.563 19.731 19.731 0 0 0 0 .725" transform="translate(99.407 128.925)"/>
            <path id="Fill_190" data-name="Fill 190" class="cls-3" d="m0 0 .7 2.006.677 2.009 1.37 4.007q.685 2 1.413 3.983c.245.66.49 1.322.766 1.97.243.666.544 1.3.811 1.963A25.905 25.905 0 0 1 3.7 12.194C3.1 10.9 2.609 9.57 2.135 8.231c-.457-1.343-.876-2.7-1.228-4.074S.223 1.4 0 0" transform="translate(104.446 150.089)"/>
            <path id="Fill_191" data-name="Fill 191" class="cls-6" d="M51.756 61.061C50.487 62.081.233 62.645.018 62.288c-.577-.965 13.058-46.8 34.482-61.04 3.776-2.51 9.523-.776 12.018 1.175 1.246.975 4.876 8.4 5.375 14.463s.662 43.523-.137 44.174" transform="translate(34.516 133.159)"/>
            <path id="Fill_192" data-name="Fill 192" class="cls-5" d="M39.768 27.133c-.159 0-.321 0-.48-.006a17.6 17.6 0 0 1-7.065-1.76c-4.215-2.014-7.623-5.273-10.923-8.425l-.5-.474-.379-.359c-1.135-1.076-2.308-2.189-3.513-3.211l.135-.114.135-.114-.211-.186.011-.011a39.129 39.129 0 0 1 7.444-5.353 17.08 17.08 0 0 1 3.223-1.21 14.3 14.3 0 0 1 1.465-.271 21.581 21.581 0 0 0-2.71-2.394A14.652 14.652 0 0 0 13.6 1.02 13.827 13.827 0 0 0 8.53 4c.1-.171.2-.342.3-.508s.211-.349.313-.524A13.783 13.783 0 0 1 13.471.631 14.013 14.013 0 0 1 17.71 0a17 17 0 0 1 2.615.208 14.776 14.776 0 0 1 6.313 2.715 21.316 21.316 0 0 1 2.944 2.656l-.05.006a8.16 8.16 0 0 0-.423.054c.092.1.174.192.261.279a13.673 13.673 0 0 0-1.649.3 16.433 16.433 0 0 0-3.164 1.172 38.264 38.264 0 0 0-7.378 5.279c1.268 1.075 2.49 2.231 3.671 3.35l.2.186.5.478c3.3 3.124 6.7 6.355 10.851 8.328a17.168 17.168 0 0 0 6.9 1.7c.153 0 .309.006.462.006a18.31 18.31 0 0 0 4.276-.514c.006.1 0 .185 0 .28v.143a18.342 18.342 0 0 1-4.271.507zm4.275-2.189a9.721 9.721 0 0 1-.71-.473 21.1 21.1 0 0 1-4.654-5.034c-1.135-1.608-2.185-3.3-3.2-4.941l-.5-.811a52.377 52.377 0 0 0-5.6-7.766l.053-.005c.141-.014.287-.029.43-.037a3.429 3.429 0 0 0-.184-.2l-.087-.093c.476-.048.963-.075 1.49-.085h.285a11.233 11.233 0 0 1 6.272 1.9 19.167 19.167 0 0 1 4.756 4.949c.5.723 1.018 1.516 1.615 2.5.009.229.009.467.009.7-.7-1.167-1.3-2.118-1.911-2.991a19.031 19.031 0 0 0-4.654-4.874 11.026 11.026 0 0 0-6.159-1.863h-.212a15.13 15.13 0 0 0-1.219.067 53.368 53.368 0 0 1 5.432 7.614l.519.839c1.006 1.629 2.047 3.313 3.162 4.906a20.907 20.907 0 0 0 4.56 4.966l.028.02c.157.11.32.223.488.327v.4zM0 20.748l.093-.226h.02c.331 0 .657-.016 1-.032h.027a18.672 18.672 0 0 0 6.575-1.573 27.95 27.95 0 0 0 5.78-3.57 79.539 79.539 0 0 0 3.19-2.631c-.5-.42-.9-.742-1.286-1.041A16.233 16.233 0 0 0 9.08 8.413a10.388 10.388 0 0 0-2.28-.259c-.221 0-.444.008-.663.023l.072-.126a6.19 6.19 0 0 1 .123-.212c.161-.007.32-.011.474-.011a10.506 10.506 0 0 1 2.344.264 16.534 16.534 0 0 1 6.465 3.3c.45.345.893.7 1.354 1.092l-.1.081c-.06.051-.122.1-.183.148l.221.185c-1.136.965-2.165 1.829-3.25 2.657a28.9 28.9 0 0 1-5.846 3.578 18.882 18.882 0 0 1-6.651 1.572c-.429.019-.786.035-1.159.042z" transform="translate(42.785 150.845)"/>
            <path id="Fill_193" data-name="Fill 193" class="cls-12" d="M7.4 20.894C4.449 20.762.9 15.2 0 11.254c-.06-.27 3.573-9.361 4.106-11.238.107-.386 10.975 6.2 10.975 6.2A31.109 31.109 0 0 0 11.9 13.1c-.073.275-1.651 7.918-4.5 7.793" transform="translate(73.29 123.392)"/>
            <path id="Fill_194" data-name="Fill 194" class="cls-3" d="M.087 0c-.263 3.2-.337 11.667 6.03 13.64a7.783 7.783 0 0 0 1.174.26c.129-.518.2-.857.217-.914a31.038 31.038 0 0 1 3.177-6.876l-.031-.017a1.555 1.555 0 0 0-.18-.11l-.031-.017c-.08-.057-.18-.109-.3-.184l-.12-.076c-.075-.046-.158-.095-.242-.143s-.2-.122-.3-.185c-.158-.095-.325-.192-.506-.3l-.19-.112c-.128-.078-.256-.156-.393-.235-.476-.284-.988-.6-1.534-.916-.2-.113-.393-.235-.59-.349-.25-.145-.5-.29-.749-.444l-.751-.436-.1-.052c-.432-.255-.865-.5-1.274-.742-.144-.082-.289-.164-.425-.244-.281-.162-.556-.314-.814-.462Q1.868.929 1.6.78C1.183.554.815.36.523.2L.283.087.087 0" transform="translate(77.681 123.503)"/>
            <path id="Fill_195" data-name="Fill 195" class="cls-12" d="M3.875 3.647C1.1 7.233-1.2 19.761.695 23.468 3.447 28.842 10.167 31.8 15.3 28c4.972-3.689 7.68-20.069 5.353-23.665C17.223-.966 7.978-1.65 3.875 3.647" transform="translate(77.313 105.621)"/>
            <path id="Fill_196" data-name="Fill 196" class="cls-3" d="m1.468 0-.085.059C1.2.917.844 1.869 0 1.96v.049C.972 2.11 1.431.843 1.468 0" transform="translate(88.063 121.268)"/>
            <path id="Fill_197" data-name="Fill 197" class="cls-3" d="M1.51.049C.166-.395-.621 2.324.623 2.735 1.849 3.139 2.636.42 1.51.049" transform="translate(87.482 120.142)"/>
            <path id="Fill_198" data-name="Fill 198" class="cls-3" d="m.47 0 .043.094C.236.926.058 1.926.736 2.431l-.021.045C-.175 2.069.074.744.47 0" transform="translate(93.883 122.278)"/>
            <path id="Fill_199" data-name="Fill 199" class="cls-3" d="M1.27.016c1.383.3.68 3.043-.6 2.765-1.261-.274-.559-3.016.6-2.765" transform="translate(94.095 121.608)"/>
            <path id="Fill_200" data-name="Fill 200" class="cls-3" d="M.1 0c.13.261.237.6.53.724a2.317 2.317 0 0 0 .964.095l.022.054A1.18 1.18 0 0 1 .408.966.931.931 0 0 1 0 .011L.1 0" transform="translate(87.106 128.182)"/>
            <path id="Fill_201" data-name="Fill 201" class="cls-3" d="M4.1 8.333s-.175 1.31-.34 1.906a12.936 12.936 0 0 0-3.579-.451c-.287.016-.223-.2.12-.3a5.273 5.273 0 0 1 3.09.091c.087-.153.232-2.023.328-2a5.393 5.393 0 0 1 1.268.681c.444-2.719.448-5.487.931-8.188a.085.085 0 0 1 .167 0 44.659 44.659 0 0 1-.628 8.863c-.045.352-1.147-.435-1.357-.6" transform="translate(87.889 117.519)"/>
            <path id="Fill_202" data-name="Fill 202" class="cls-3" d="M.529.111A10.754 10.754 0 0 1 1.671.029a1.853 1.853 0 0 1 1.181.139.588.588 0 0 1 .2.692 1.464 1.464 0 0 1-1.292.725 2.146 2.146 0 0 1-1.51-.359A.628.628 0 0 1 .529.111" transform="translate(87.442 117.822)"/>
            <path id="Fill_203" data-name="Fill 203" class="cls-3" d="M2.52 1.261a10.652 10.652 0 0 0-.9-.711A1.85 1.85 0 0 0 .567 0a.589.589 0 0 0-.553.462 1.467 1.467 0 0 0 .661 1.327 2.146 2.146 0 0 0 1.447.55.628.628 0 0 0 .4-1.078" transform="translate(95.221 117.396)"/>
            <path id="Fill_204" data-name="Fill 204" class="cls-5" d="M.395 4.842c1.037.4 1.235-1.775 1.281-2.54A13.123 13.123 0 0 1 2.259 0a12.7 12.7 0 0 1-1.118 2.1c-.48.6-1.793 2.343-.746 2.746" transform="translate(83.696 115.076)"/>
            <path id="Fill_205" data-name="Fill 205" class="cls-3" d="M.934 19.974S-1.057 11.158.775 7.058C1.6 5.2 4.645 4.787 4.645 4.787A4.564 4.564 0 0 1 7.468.89c2.978-1.376 8.307.936 8.307.936s5.274-3.95 9.627-.23-.834 8.327-.834 8.327.971 3.238-4.224 3.779c-5.059.527-13.383-4.436-13.383-4.436a32.977 32.977 0 0 1-3.248 9.251 3 3 0 0 1-2.78 1.457" transform="translate(76.136 101.307)"/>
            <path id="Fill_206" data-name="Fill 206" class="cls-3" d="M12.162 2.4A9.311 9.311 0 0 0 8.837.569 10.057 10.057 0 0 0 5.482 0 5.575 5.575 0 0 0 .43 2.728 3.9 3.9 0 0 0 .2 5.75l.063-.029c-.684-1.83.678-3.865 2.283-4.67A8.416 8.416 0 0 1 8.513.865a16.394 16.394 0 0 1 3.58 1.635l.069-.1" transform="translate(80.594 101.092)"/>
            <path id="Fill_207" data-name="Fill 207" class="cls-3" d="M11.746 5.174a4.537 4.537 0 0 0-2.063-3.743A7.744 7.744 0 0 0 4.862.005 9.754 9.754 0 0 0 0 1.591l.036.058a8.577 8.577 0 0 1 8.748-.294 4.7 4.7 0 0 1 2.488 3.277 4.66 4.66 0 0 1-1.362 3.7 8.749 8.749 0 0 1-4.32 2.161l.01.058a8.982 8.982 0 0 0 4.144-1.676 5.078 5.078 0 0 0 2-3.7" transform="translate(92.579 101.359)"/>
            <path id="Fill_208" data-name="Fill 208" class="cls-3" d="M16.528 6.459a16 16 0 0 1-6.7-1.019A32.667 32.667 0 0 1 3.477 2.3 68.31 68.31 0 0 1 .04 0L0 .055a35.691 35.691 0 0 0 6.113 4.381 17.92 17.92 0 0 0 6.6 2.138 15.291 15.291 0 0 0 3.827-.064l-.009-.051" transform="translate(80.96 109.151)"/>
            <path id="Fill_209" data-name="Fill 209" class="cls-12" d="M4.963 4.452S3.65-.317 1.577.017-.46 6.6 1.307 8.081a2.2 2.2 0 0 0 3.171-.124l.485-3.506" transform="translate(75.11 115.314)"/>
            <path id="Fill_210" data-name="Fill 210" class="cls-3" d="M.09 0 .06.051A5.551 5.551 0 0 1 1.6 4.285 1.215 1.215 0 0 0 0 3.363l.012.091a1.353 1.353 0 0 1 1.244.946 6.524 6.524 0 0 1 .268 1.371c.021.151.276.165.279 0v-.039C2.488 3.927 1.979.879.09 0" transform="translate(76.652 117.122)"/>
            <path id="Fill_211" data-name="Fill 211" class="cls-12" d="M1.133 7.519C-1.34 21.358.148 50.38 6.454 55.242c7.3 5.629 39.267 6.786 46.377 4.69 2.829-.833-3.908-19.569-7.061-19.547-13.219.092-24.361-1.428-25.5-2.991C18.53 35 13.969 18.118 10.86 7.547 6.955-5.735 2.243 1.309 1.133 7.519" transform="translate(63.623 135.816)"/>
            <path id="Fill_212" data-name="Fill 212" class="cls-3" d="M20.835.29.489 13.559a.817.817 0 0 0-.128 1.425l9.444 7.085a1.912 1.912 0 0 0 2.041.01L32.192 8.81a.817.817 0 0 0 .129-1.425L22.876.3a1.911 1.911 0 0 0-2.041-.01" transform="translate(124.077 156.469)"/>
            <path id="Fill_213" data-name="Fill 213" class="cls-15" d="M20.835.29.489 13.56a.817.817 0 0 0-.129 1.424l9.445 7.086a1.911 1.911 0 0 0 2.041.009L32.191 8.81a.817.817 0 0 0 .129-1.425L22.876.3a1.909 1.909 0 0 0-2.041-.01" transform="translate(123.205 155.877)"/>
            <path id="Fill_214" data-name="Fill 214" class="cls-5" d="M19.14.539.485 12.7c-.57.372-.649.961-.177 1.316l8.451 6.339a1.772 1.772 0 0 0 1.888-.03L29.3 8.164c1.163-.758 1.036-1.213.562-1.568l-1.691-1.27a.444.444 0 0 0-.457.047l-.066.043a.545.545 0 0 1-.76-.06l-3.915-2.937c-.22-.164-.4-.3-.033-.534l.066-.044c.155-.1.2-.24.1-.315L21.414.256C20.941-.1 20.2-.154 19.14.539" transform="translate(124.476 156.742)"/>
            <path id="Fill_215" data-name="Fill 215" class="cls-5" d="m0 .1 1.068.8h.139l.007-.1L.146 0H.008L0 .1" transform="translate(149.325 159.837)"/>
            <path id="Fill_216" data-name="Fill 216" class="cls-8" d="M0 5.217 7.18 10.6l8-5.217L8 0 0 5.217" transform="translate(134.118 160.35)"/>
            <path id="Fill_217" data-name="Fill 217" class="cls-10" d="M0 .306 4.189 3.45l.47-.306L.47 0 0 .306" transform="translate(135.794 168.36)"/>
            <path id="Fill_218" data-name="Fill 218" class="cls-10" d="m0 .153 4.96 3.722.234-.153L.235 0 0 .153" transform="translate(134.252 168.438)"/>
            <path id="Fill_219" data-name="Fill 219" class="cls-10" d="m0 .153 4.96 3.722.24-.154L.235 0 0 .153" transform="translate(133.821 168.719)"/>
            <path id="Fill_220" data-name="Fill 220" class="cls-10" d="m0 .153 4.96 3.721.24-.153L.234 0 0 .153" transform="translate(133.391 169)"/>
            <path id="Fill_221" data-name="Fill 221" class="cls-10" d="m0 .151.894.67L1.088.7.194.025 0 .151" transform="translate(150.837 163.326)"/>
            <path id="Fill_222" data-name="Fill 222" class="cls-10" d="m0 .151.894.67L1.088.7.194.025 0 .151" transform="translate(150.483 163.557)"/>
            <path id="Fill_223" data-name="Fill 223" class="cls-10" d="m0 .151.894.67L1.088.7.194.025 0 .151" transform="translate(150.128 163.789)"/>
            <path id="Fill_224" data-name="Fill 224" class="cls-2" d="M.026.388a.589.589 0 0 0-.007.327A1.584 1.584 0 0 0 .5.741C.812.717 1.051.535.875.4.737.3.484.413.484.413S.672.251.534.146C.358.015.082.169.026.388" transform="translate(132.995 166.014)"/>
            <path id="Fill_225" data-name="Fill 225" class="cls-2" d="m0 1.206 5.793 4.345 1.848-1.205L1.849 0 0 1.206" transform="translate(127.973 169.341)"/>
            <path id="Fill_226" data-name="Fill 226" class="cls-12" d="M9.492 28.256c1.558 0 14.651-3.245 18.617-5.474a44.224 44.224 0 0 0 11.384-8.7c5.182-5.55 8.238-9.877 8.335-12.274.112-2.784.033-3.271-10.461 5.259-5.937 4.828-9.731 4.245-12.785 3.081A43.929 43.929 0 0 0 0 8.64s3.5 19.6 9.492 19.616" transform="translate(105.945 167.549)"/>
            <path id="Fill_227" data-name="Fill 227" class="cls-12" d="M24.849 10.59C21.657 9.5 34.3 6.769 35.753 3.213S33.28-.474 29.769.567c-12.184 3.611-19.332.648-26.654 5.655C2.343 6.75.044 7.88 0 8.29c-.343 3.477 24.846 2.3 24.846 2.3" transform="translate(107.232 167.611)"/>
            <path id="Fill_228" data-name="Fill 228" class="cls-3" d="M12.547.124a26.742 26.742 0 0 0-6.774.188A16.352 16.352 0 0 0 .035 2.783c-.076.049-.015.176.065.129C3.854.651 8.286.435 12.542.224l.005-.1" transform="translate(111.52 170.22)"/>
            <path id="Fill_229" data-name="Fill 229" class="cls-6" d="m.033 26.81 7.7-1.445 9.693-1.818s-2.275-10.8-5.053-17.528C9.518-.9 4.775-3.165 2.147 6.352-.434 15.7.033 26.81.033 26.81" transform="translate(62.198 135.077)"/>
            <path id="Fill_230" data-name="Fill 230" class="cls-3" d="M0 2.775C2.962 2.1 13.835-.208 15.285.015l.023.127C14.028.861 3.041 2.544.033 2.957L0 2.775" transform="translate(62.912 155.621)"/>
            <path id="Fill_231" data-name="Fill 231" class="cls-3" d="M1.642 14.219c-.454.136-.913.253-1.371.373l-.122.032-.013-.14C.023 13.271 0 12.058 0 10.844s.059-2.426.144-3.636S.338 4.79.511 3.59c.155-1.2.349-2.4.6-3.59-.017 1.216-.082 2.424-.145 3.63s-.13 2.413-.2 3.617c-.131 2.409-.3 4.818-.4 7.229l-.135-.107c.47-.054.94-.112 1.413-.15" transform="translate(61.982 147.406)"/>
            <path id="Fill_232" data-name="Fill 232" class="cls-3" d="M.057 0A14.067 14.067 0 0 1 .6 2.252c.056.38.117.758.149 1.143a10.779 10.779 0 0 1 .064 1.163 9.388 9.388 0 0 1-.63-2.238A9.88 9.88 0 0 1 .057 0" transform="translate(61.536 150.089)"/>
            <path id="Fill_233" data-name="Fill 233" class="cls-3" d="M2.527 12.3c.208-.063.415-.131.626-.187L3.1 12.2c-.325-1-.595-2.016-.89-3.023l-.79-3.045C.92 4.1.444 2.063 0 0a25.394 25.394 0 0 1 1.146 2.947c.344 1 .617 2.013.884 3.03s.492 2.044.7 3.075c.184 1.036.382 2.068.5 3.117l.008.074-.063.007c-.217.025-.434.036-.652.052" transform="translate(76.46 146.439)"/>
            <path id="Fill_234" data-name="Fill 234" class="cls-3" d="M.347 0a5.614 5.614 0 0 1 .287 1.762 5.537 5.537 0 0 1-.057.892 3.3 3.3 0 0 1-.231.874 13.767 13.767 0 0 1-.135-1.76A8.784 8.784 0 0 1 .347 0" transform="translate(77.696 148.481)"/>
            <path id="Fill_235" data-name="Fill 235" class="cls-5" d="M10.421 4.769A5.22 5.22 0 1 1 4.771.02a5.22 5.22 0 0 1 5.65 4.749" transform="translate(110.541 89.312)"/>
            <path id="Fill_237" data-name="Fill 237" class="cls-5" d="M5.8 2.654A2.905 2.905 0 1 1 2.655.011 2.9 2.9 0 0 1 5.8 2.654" transform="translate(105.86 101.044)"/>
            <path id="Fill_239" data-name="Fill 239" class="cls-5" d="M56.118 26.9a15.245 15.245 0 0 1-21.056 15.878 12.787 12.787 0 0 1-20.341-.045 10.039 10.039 0 0 1-1.71.358 10.366 10.366 0 0 1-9.739-16.246A15.239 15.239 0 0 1 23.792 4.8a12.792 12.792 0 0 1 21.955 3.482 8.171 8.171 0 0 1 1.641-.37 8.364 8.364 0 0 1 7.192 13.936 14.843 14.843 0 0 1 1.538 5.052" transform="translate(105.881 42.916)"/>
            <path id="Fill_240" data-name="Fill 240" class="cls-6" d="M55.432 34.888a14.964 14.964 0 0 1-4.842 6.229 15.4 15.4 0 0 1-15.167 1.963l.143-.038a12.974 12.974 0 0 1-16.055 3.814A13.309 13.309 0 0 1 14.9 43.1l.311.1a10.369 10.369 0 0 1-3.25.454 10.053 10.053 0 0 1-3.242-.546 10.676 10.676 0 0 1-5.261-3.845 11.46 11.46 0 0 1-1.5-2.943 11.306 11.306 0 0 1-.536-3.263 10.721 10.721 0 0 1 1.934-6.25l.014.477A15.415 15.415 0 0 1 .022 16.962a15.588 15.588 0 0 1 4.191-10 15.778 15.778 0 0 1 9.681-4.854 15.516 15.516 0 0 1 10.463 2.65l-.377.057A12.993 12.993 0 0 1 36.216.171a12.981 12.981 0 0 1 10.023 8.27l-.113-.053a8.506 8.506 0 0 1 5.452.072A8.394 8.394 0 0 1 55 22.048v-.016a14.909 14.909 0 0 1 1.525 5.054 15.413 15.413 0 0 1-1.093 7.802z" transform="translate(106.474 42.726)"/>
            <path id="Fill_241" data-name="Fill 241" class="cls-8" d="M2.885 25.079a1.935 1.935 0 0 1-.395-.041 1.8 1.8 0 0 1-1.114-.751 1.758 1.758 0 0 1-.266-1.353l.134-.639A1.819 1.819 0 0 1 3 20.881a1.7 1.7 0 0 1 .345.035 1.758 1.758 0 0 1 1.379 2.1l-.124.644a1.729 1.729 0 0 1-1.715 1.419zm1.274-6.113a1.938 1.938 0 0 1-.4-.041 1.8 1.8 0 0 1-1.114-.75 1.76 1.76 0 0 1-.265-1.354l.77-3.7.05-.063-.021-.079a1.852 1.852 0 0 1 1.779-1.409 1.635 1.635 0 0 1 .331.034 4.255 4.255 0 0 0 .865.09 4.1 4.1 0 0 0 4.016-3.225 4 4 0 0 0-.6-3.077 4.162 4.162 0 0 0-2.623-1.749 4.1 4.1 0 0 0-.835-.086 4 4 0 0 0-2.984 1.331 1.791 1.791 0 0 1-2.55.136 1.759 1.759 0 0 1-.109-2.508 7.635 7.635 0 0 1 12.045.933A7.578 7.578 0 0 1 11.01 13.5a7.707 7.707 0 0 1-4.66 1.737l-.482 2.31a1.726 1.726 0 0 1-1.709 1.42z" transform="translate(135.937 54.16)"/>
            <path id="Fill_242" data-name="Fill 242" class="cls-8" d="M7.651 25.291a7.648 7.648 0 0 1-7.593-6.684 7.5 7.5 0 0 1 1.08-4.921 7.7 7.7 0 0 1 3.85-3.151L4.7 8.194A1.742 1.742 0 0 1 6.244 6.21a1.765 1.765 0 0 1 .215-.01 1.784 1.784 0 0 1 1.77 1.56l.463 3.74-.027.076.045.069a1.827 1.827 0 0 1-1.548 1.984 4.109 4.109 0 0 0-3.609 4.543 4.04 4.04 0 0 0 4.073 3.559 4.363 4.363 0 0 0 .534-.031 4.022 4.022 0 0 0 3.215-2.409 1.8 1.8 0 0 1 1.65-1.1 1.819 1.819 0 0 1 .72.15 1.778 1.778 0 0 1 .911 2.338A7.622 7.622 0 0 1 8.6 25.232a7.76 7.76 0 0 1-.949.059zM5.762 4.207A1.752 1.752 0 0 1 4.01 2.645L3.93 2A1.774 1.774 0 0 1 4.278.674a1.777 1.777 0 0 1 1.2-.661A1.756 1.756 0 0 1 5.694 0a1.783 1.783 0 0 1 1.768 1.56l.079.649a1.756 1.756 0 0 1-.368 1.3 1.789 1.789 0 0 1-1.178.681 1.9 1.9 0 0 1-.233.017z" transform="translate(118.81 54.171)"/>
        </g>
    </g>
</svg>
