<svg xmlns="http://www.w3.org/2000/svg" width="480.917" height="290.694">
    <defs>
        <clipPath id="clip-path">
            <path id="Clip_31" data-name="Clip 31" class="cls-1" d="M0 0h506.9v32.559H0z" transform="translate(.047 .327)"/>
        </clipPath>
        <clipPath id="clip-path-2">
            <path id="Clip_38" data-name="Clip 38" class="cls-1" d="M0 0h33.489v70.53H0z" transform="translate(.474 .104)"/>
        </clipPath>
        <style>
            .cls-1{fill:none}.cls-2{fill:#e4e4de}.cls-3{fill:#cfd0ca}.cls-4{fill:#b9bab6}.cls-5{fill:#959894}.cls-7{fill:#132529}.cls-8{fill:#c7ccf1}.cls-10{fill:#334f55}.cls-11{fill:#e36a5a}.cls-12{fill:#f5bb3d}.cls-15{fill:#5a68c2}.cls-16{fill:#253c40}.cls-17{fill:#fffffe}.cls-18{fill:#afb5e1}.cls-19{fill:#929ad5}
        </style>
    </defs>
    <g id="_4341137" data-name="4341137" transform="translate(-.047 -.306)">
        <path id="Fill_1" data-name="Fill 1" class="cls-2" d="M0 142h76V0H0z" transform="translate(8 104)"/>
        <path id="Fill_2" data-name="Fill 2" class="cls-3" d="M0 4h83V0H0z" transform="translate(5 100)"/>
        <path id="Fill_3" data-name="Fill 3" class="cls-2" d="M0 4h26V0H0z" transform="translate(88 100)"/>
        <path id="Fill_4" data-name="Fill 4" class="cls-3" d="M0 142h26V0H0z" transform="translate(84 104)"/>
        <path id="Fill_5" data-name="Fill 5" class="cls-4" d="M59.9 33.9v-.1H.2V.2h59.6v33.7h.2V0H0v34h60v-.1h-.1" transform="translate(16 119)"/>
        <path id="Fill_6" data-name="Fill 6" class="cls-4" d="M0 7h12V0H0z" transform="translate(38 129)"/>
        <path id="Fill_7" data-name="Fill 7" class="cls-4" d="M11.9 5.9v-.1H.2V.2h11.6v5.7h.2V0H0v6h12v-.1h-.1" transform="translate(41 129)"/>
        <path id="Fill_8" data-name="Fill 8" class="cls-4" d="M59.9 33.9v-.1H.2V.2h59.6v33.7h.2V0H0v34h60v-.1h-.1" transform="translate(16 161)"/>
        <path id="Fill_9" data-name="Fill 9" class="cls-4" d="M0 7h12V0H0z" transform="translate(38 171)"/>
        <path id="Fill_10" data-name="Fill 10" class="cls-4" d="M11.9 5.9v-.1H.2V.2h11.6v5.7h.2V0H0v6h12v-.1h-.1" transform="translate(41 171)"/>
        <path id="Fill_11" data-name="Fill 11" class="cls-4" d="M59.9 33.9v-.1H.2V.2h59.6v33.7h.2V0H0v34h60v-.1h-.1" transform="translate(16 204)"/>
        <path id="Fill_12" data-name="Fill 12" class="cls-4" d="M0 7h12V0H0z" transform="translate(38 213)"/>
        <path id="Fill_13" data-name="Fill 13" class="cls-4" d="M11.9 5.9v-.1H.2V.2h11.6v5.7h.2V0H0v6h12v-.1h-.1" transform="translate(41 214)"/>
        <path id="Fill_14" data-name="Fill 14" class="cls-2" d="M0 100h76V0H0z" transform="translate(397 145)"/>
        <path id="Fill_15" data-name="Fill 15" class="cls-3" d="M0 4h83V0H0z" transform="translate(393 141)"/>
        <path id="Fill_16" data-name="Fill 16" class="cls-2" d="M0 4h26V0H0z" transform="translate(476 141)"/>
        <path id="Fill_17" data-name="Fill 17" class="cls-3" d="M0 100h26V0H0z" transform="translate(473 145)"/>
        <path id="Fill_18" data-name="Fill 18" class="cls-5" d="M0 34h59V0H0z" transform="translate(405 160)"/>
        <path id="Fill_19" data-name="Fill 19" class="cls-4" d="M0 33h45V0H0z" transform="translate(413 152)"/>
        <path id="Fill_20" data-name="Fill 20" class="cls-4" d="M16.077 0H0v3h17l-.923-3" transform="translate(413 148)"/>
        <path id="Fill_21" data-name="Fill 21" class="cls-5" d="M49 30H3.509L0 0h45.491L49 30" transform="translate(410 154)"/>
        <path id="Fill_22" data-name="Fill 22" class="cls-5" d="M15.739 0H0l.356 3H17l-1.261-3" transform="translate(409 151)"/>
        <path id="Fill_23" data-name="Fill 23" class="cls-2" d="M0 34h59V0H0z" transform="translate(377 160)"/>
        <path id="Fill_24" data-name="Fill 24" class="cls-4" d="M59.9 33.9v-.1H.2V.2h59.6v33.7h.2V0H0v34h60v-.1h-.1" transform="translate(376 160)"/>
        <path id="Fill_25" data-name="Fill 25" class="cls-4" d="M0 7h12V0H0z" transform="translate(397 170)"/>
        <path id="Fill_26" data-name="Fill 26" class="cls-4" d="M11.9 5.9v-.1H.2V.2h11.6v5.7h.2V0H0v6h12v-.1h-.1" transform="translate(401 170)"/>
        <path id="Fill_27" data-name="Fill 27" class="cls-3" d="M0 29h29V0H0z" transform="translate(436 165)"/>
        <path id="Fill_28" data-name="Fill 28" class="cls-4" d="M59.9 33.9v-.1H.2V.2h59.6v33.7h.2V0H0v34h60v-.1h-.1" transform="translate(405 202)"/>
        <path id="Fill_29" data-name="Fill 29" class="cls-4" d="M0 7h12V0H0z" transform="translate(426 212)"/>
        <g id="Group_33" data-name="Group 33" transform="translate(0 213)">
            <path id="Clip_31-2" data-name="Clip 31" class="cls-1" d="M0 0h506.9v32.559H0z" transform="translate(.047 .327)"/>
            <g id="Group_33-2" data-name="Group 33" style="clip-path:url(#clip-path)">
                <path id="Fill_30" data-name="Fill 30" class="cls-4" d="M11.713 5.691V5.6H.194V.192h11.422v5.5h.2V0H0v5.787h11.81v-.1h-.1" transform="translate(429.582 .327)"/>
                <path id="Fill_32" data-name="Fill 32" class="cls-7" d="M0 .384 63.368.2l63.369-.071L253.474 0 380.21.128 443.578.2l63.368.188-63.368.184-63.368.067-126.736.128L126.737.638 63.368.571 0 .384" transform="translate(0 32.118)"/>
            </g>
        </g>
        <path id="Fill_34" data-name="Fill 34" class="cls-2" d="M446 24.5C446 38.03 346.159 49 223 49S0 38.03 0 24.5 99.841 0 223 0s223 10.969 223 24.5" transform="translate(31 267)"/>
        <path id="Fill_35" data-name="Fill 35" class="cls-8" d="M24.7 59.068a44.573 44.573 0 0 0-1.439 8.132c.073.136.06.638-.022.5-.016.447-.7.365-.7-.075.006-.287.014-.575.028-.854-1.6-1.973-3.913-3.224-5.786-4.938a10.771 10.771 0 0 1-3.171-5.024c-1.553-5.331-.1-10.981-1.965-16.3-1.611-4.586-4.5-8.571-6.945-12.726C2.12 23.4.216 18.779.025 13.634c-.152-3.94.32-9.19 3.333-12.142C6.553-1.639 10.512.707 12.96 3.5c7.091 8.1 10.373 18.345 11.7 28.818A112.933 112.933 0 0 1 25.974 49.8a46.9 46.9 0 0 1-1.27 9.273" transform="translate(462 131)"/>
        <path id="Fill_36" data-name="Fill 36" class="cls-7" d="M15.754 54.867a98.957 98.957 0 0 0-.194-16.347l.027-.06c.089-4.418.441-8.82.267-13.244A78.252 78.252 0 0 0 13.9 11.012l-.086.013a92.112 92.112 0 0 1 1.546 13.892q.135 3.745-.06 7.49c-.044.81-.119 1.629-.173 2.448v-.008A87.126 87.126 0 0 0 1.9.057c-.093-.143-.349.01-.258.157a90.593 90.593 0 0 1 10.762 25.8C9.005 19.747 3.869 14.6.058 8.577L0 8.612C3.423 15.313 9.078 20.6 12.683 27.2a91.616 91.616 0 0 1 1.518 8.139 90.416 90.416 0 0 1 .821 11.306 129.647 129.647 0 0 1-5.916-11.6c-.045-.109-.2-.035-.164.074a45.14 45.14 0 0 0 6.092 12.39c.014 2.676-.065 5.354-.223 8.027-.424 7.137-1.65 14.178-2.216 21.292a.165.165 0 0 0 .328.035 162.621 162.621 0 0 0 2.832-21.992" transform="translate(469 145)"/>
        <g id="Group_40" data-name="Group 40" transform="translate(477 145)">
            <path id="Clip_38-2" data-name="Clip 38" class="cls-1" d="M0 0h33.489v70.53H0z" transform="translate(.474 .104)"/>
            <g id="Group_40-2" data-name="Group 40" style="clip-path:url(#clip-path-2)">
                <path id="Fill_37" data-name="Fill 37" class="cls-7" d="M.079 0 0 .036C1.3 3.669 2.036 7.35 2.977 11.074a.136.136 0 0 0 .268-.044A39.909 39.909 0 0 0 .079 0" transform="translate(.474 .104)"/>
                <path id="Fill_39" data-name="Fill 39" class="cls-8" d="M25.691 4.088A54.872 54.872 0 0 1 22.7 10.3c-2.343 4.3-4.787 8.234-5.229 13.236a31.055 31.055 0 0 1-.942 6.63 19.954 19.954 0 0 1-2.618 5.19c-2.54 3.732-5.711 6.951-8.068 10.826a45.853 45.853 0 0 0-5.36 13.051c-.059.25-.451.183-.393-.067l.01-.058-.023-.053C-.291 48.328.557 37.517 3.8 27.241a110.761 110.761 0 0 1 5.146-13.234 31.28 31.28 0 0 1 6.947-10.093c1.977-1.8 6.265-5.206 9.08-3.4 1.352.868 1.251 2.237.718 3.577" transform="translate(7.905 11.244)"/>
            </g>
        </g>
        <path id="Fill_41" data-name="Fill 41" class="cls-7" d="M17.776 19.3a88.178 88.178 0 0 1-6.2 8.987C10.54 29.65 9.492 31 8.461 32.36c-.487.643-1.033 1.284-1.481 1.975.282-1.131.557-2.264.843-3.394a133.72 133.72 0 0 1 4.752-16.146A109.185 109.185 0 0 1 19.985.152c.071-.125-.128-.215-.2-.1-2.256 3.74-4.544 7.473-6.44 11.414a60.285 60.285 0 0 0-2.734 6.773A105.209 105.209 0 0 1 14.25 3.772l-.064-.03a49.821 49.821 0 0 0-3.776 15.052l.007.024q-.693 2.1-1.285 4.229c-1.681 6.019-3.157 12.1-4.526 18.2a65.639 65.639 0 0 1 1.03-11.964c.018-.091-.118-.113-.14-.023a38.234 38.234 0 0 0-1.031 12.615q-.777 3.483-1.513 6.969C1.9 53.8.614 58.851 0 63.886a.1.1 0 0 0 .2.034c.732-2.715 1.174-5.529 1.772-8.276s1.219-5.51 1.856-8.258c.926-4 1.9-7.995 2.887-11.982a21.434 21.434 0 0 1 2.9-3.986 255.75 255.75 0 0 0 3.124-4.06 60.527 60.527 0 0 0 5.135-8.011l-.094-.045" transform="translate(482 165)"/>
        <path id="Fill_42" data-name="Fill 42" class="cls-7" d="M5.909 0A58.009 58.009 0 0 0 0 9.951L.072 10C2.061 6.7 4.016 3.368 6 .062L5.909 0" transform="translate(494 180)"/>
        <path id="Fill_43" data-name="Fill 43" class="cls-8" d="M3.091 11.988c1.383 2.379 2.961 5.236 2.367 8.093-.376 1.808-1.7 3.276-1.94 5.12-.535 4.072 3.525 6.762 6.463 8.686 7.325 4.8 17.371 9.084 18.7 18.892.05.347.651.26.607-.08l-.015-.065.036-.057a37.548 37.548 0 0 0-.133-14.977 47.669 47.669 0 0 0-5.907-14.039C18.862 16.045 14.194 8.35 7.528 2.593 5.682 1 1.9-1.862.436 1.732-.99 5.226 1.4 9.087 3.091 11.988" transform="translate(452 158)"/>
        <path id="Fill_44" data-name="Fill 44" class="cls-7" d="M.085 10.458C5.014 15.734 12.85 18.691 17.092 24.6A58.954 58.954 0 0 0 4.021.325a.192.192 0 0 1 .272-.269 47.858 47.858 0 0 1 10.681 15.3 67.993 67.993 0 0 0-4.6-11.63.126.126 0 0 1 .218-.125 44.024 44.024 0 0 1 4.958 13.068c5.59 13.381 6.108 29.074 4.937 43.178-.017.2-.328.207-.321 0 .321-11.115.139-22.424-2.554-33.278-.056-.227-.119-.451-.177-.677C12.819 19.532 5.017 16.583 0 10.543l.085-.085" transform="translate(461 176)"/>
        <path id="Fill_45" data-name="Fill 45" class="cls-7" d="M.185.031C2.8 2.32 5.378 4.663 8 6.952L7.962 7A37.726 37.726 0 0 1 .029.179.108.108 0 0 1 .185.031" transform="translate(460 182)"/>
        <path id="Fill_46" data-name="Fill 46" class="cls-7" d="M.149.04A83.3 83.3 0 0 0 8 10.934L7.934 11A38.337 38.337 0 0 1 .01.123.082.082 0 0 1 .149.04" transform="translate(460 171)"/>
        <path id="Fill_47" data-name="Fill 47" class="cls-10" d="M0 30h22L19.035 0H3.388L0 30" transform="translate(472 215)"/>
        <path id="Fill_48" data-name="Fill 48" class="cls-7" d="M0 5h17l-.491-5H.562L0 5" transform="translate(474 215)"/>
        <path id="Fill_49" data-name="Fill 49" class="cls-10" d="M0 5h21V0H0z" transform="translate(472 212)"/>
        <path id="Fill_50" data-name="Fill 50" class="cls-11" d="M57.185 51.788c-1.826.58-53.88-.084-55.844-1.352-.754-.468-1.1-7.95-1.251-17v-.284a333.02 333.02 0 0 1-.063-5.733c0-.268 0-.536-.009-.8C-.058 13.553.152 0 .152 0l34.821.344-1.047 26.365-.25 6.5-.02.562s19.81 9.038 21.821 10.655c2 1.612 3.535 6.787 1.709 7.36" transform="translate(77 247)"/>
        <path id="Fill_51" data-name="Fill 51" class="cls-12" d="M.637.576C.464.525.373.474.363.424c0 0 .1.05.274.152" transform="translate(118 284)"/>
        <path id="Fill_52" data-name="Fill 52" class="cls-8" d="M56.2 15.782c-1.8.6-53.081-.08-55.018-1.383C.518 13.972.172 7.867 0 0c9.4 2.011 45.816 9.564 46.812 6.371.392-1.255-2.722-3.427-4.691-4.649 5.382 2.63 11.344 5.639 12.4 6.523 1.956 1.649 3.479 6.95 1.679 7.537" transform="translate(78 284)"/>
        <path id="Fill_53" data-name="Fill 53" d="M4.728.121A969.926 969.926 0 0 1 4.726.12" transform="translate(97.272 298.879)" style="fill:#c6c7c2"/>
        <path id="Fill_54" data-name="Fill 54" d="M5 1C2.944.6 1.223.25 0 0c1.221.246 2.943.6 4.994 1H5" transform="translate(78 284)" style="fill:#d36050"/>
        <path id="Fill_55" data-name="Fill 55" class="cls-15" d="M24 15c-1.6-.037-3.188-.076-4.726-.12-9.533-.269-17.359-.654-18.1-1.124C.518 13.349.172 7.516 0 0c1.341.274 3.223.653 5.471 1.1L24 15" transform="translate(78 284)"/>
        <path id="Fill_56" data-name="Fill 56" class="cls-16" d="M0 0s7.734 87.195 8.994 93.849c.292 1.515.473 9.756.591 20.35.268 23.112.109 64.8.109 64.8H46s-1.078-72.229-2.685-85.522S31.434 0 31.434 0H0" transform="translate(67 98)"/>
        <path id="Fill_57" data-name="Fill 57" class="cls-7" d="M32.921.394c-5.6-.152-3.994-.212-9.6-.282C20.582.078 2.562-.127 0 .425v.15c2.562.552 20.582.347 23.324.313 5.6-.07 3.994-.13 9.6-.281.105 0 .105-.21 0-.213" transform="translate(78 271)"/>
        <path id="Fill_58" data-name="Fill 58" class="cls-7" d="M11.766 127.2q-.059-7.907-.116-15.816c-.036-5.106-.029-10.217-.267-15.318C10.9 85.736 8.85 75.58 7.39 65.367S4.712 44.894 3.61 34.63C2.373 23.114 1.281 11.582.121.058.113-.021-.006-.019 0 .061c1.677 20.576 3.549 41.147 6.339 61.6Q7.38 69.294 8.614 76.9c.831 5.129 1.657 10.263 2.053 15.45.388 5.077.451 10.173.5 15.263q.08 7.9.154 15.805c.112 11.7.223 29.717.334 41.42a.172.172 0 0 0 .344-.009c-.078-10.438-.156-27.188-.234-37.626" transform="translate(72 103)"/>
        <path id="Fill_59" data-name="Fill 59" class="cls-7" d="M0 0s15.589 87.019 16.865 93.66c.3 1.512.479 9.736.6 20.309l.008.032L35 0H0" transform="translate(59 99)"/>
        <path id="Fill_60" data-name="Fill 60" class="cls-11" d="M56.056 55.967C54.194 56.421 2.339 52.1.472 50.689c-.719-.522-.524-8.054-.025-17.146l.018-.285c.1-1.874.212-3.8.349-5.757.019-.268.038-.537.048-.806C1.727 13.584 2.91 0 2.91 0l34.695 2.79-2.939 26.381-.716 6.506-.06.562S52.992 46.7 54.882 48.462c1.874 1.757 3.038 7.058 1.174 7.5" transform="translate(36 246)"/>
        <path id="Fill_61" data-name="Fill 61" class="cls-8" d="M56.056 18.966c-1.863.467-53.712-3.953-55.583-5.4C-.14 13.116-.093 7.429.25 0c8.032 2.082 46.74 11.947 47.925 8.7.247-.686-.573-1.7-1.687-2.694a86.038 86.038 0 0 1 8.4 5.283c1.871 1.8 3.034 7.212 1.17 7.672" transform="translate(36 284)"/>
        <path id="Fill_62" data-name="Fill 62" class="cls-16" d="M36.1 181 0 179.459S9.854 99.711 10.037 94.81c.271-7.287 3.742-37.362 6.657-61.712 0 0-5.526-13.183 4.817-33.1H63s-2.781 18.95-7.541 30.966a55.175 55.175 0 0 0-9.224 4.239s-4.13 54.297-4.284 61.066C41.645 109.655 36.1 181 36.1 181" transform="translate(35 98)"/>
        <path id="Fill_63" data-name="Fill 63" class="cls-7" d="M32.924 1.8c-5.6-.443-3.986-.414-9.587-.779C20.6.838 2.584-.313 0 .082v.143C2.544.891 20.569 1.65 23.312 1.761c5.606.229 4 .088 9.606.239.105 0 .112-.2.007-.2" transform="translate(37 271)"/>
        <path id="Fill_64" data-name="Fill 64" class="cls-7" d="M18.577.11c-2.187 4.664-4.229 9.554-4.994 14.666a38.718 38.718 0 0 0 1.824 16.244s-.309 4.293-.636 7.039-.657 5.512-.98 8.269l-1.958 16.71Q9.884 79.665 7.955 96.3t-3.833 33.27c-1.253 11.058-2.6 22.109-3.709 33.182q-.208 2.062-.413 4.129c-.014.138.23.166.249.027 1.5-11.051 2.782-22.128 4.12-33.2q2-16.532 3.946-33.07 1.981-16.623 3.912-33.25c1.278-10.927 2.712-21.851 3.81-32.8a24.323 24.323 0 0 0 .1-3.807s-2.358-7.779-2.08-12.8c.291-5.253 1.566-9.245 3.48-14.086.479-1.211.971-2.417 1.45-3.627.091-.229-.3-.382-.41-.158" transform="translate(41 100)"/>
        <path id="Fill_65" data-name="Fill 65" class="cls-7" d="M10.673.015A68.468 68.468 0 0 0 .066 4.779a.116.116 0 0 0 .1.21c3.573-1.48 7.217-2.9 10.7-4.563a.227.227 0 0 0-.193-.411" transform="translate(82 129)"/>
        <path id="Fill_66" data-name="Fill 66" class="cls-7" d="M1.23 19.543c.376-2.223.679-4.453.873-6.7A59.871 59.871 0 0 0 1.965.285.11.11 0 0 0 1.747.3 113.289 113.289 0 0 1 .715 17.636c-.425 2.761-1.84 6.919 1.1 7.344 2.995.432 4.931-6.532 5.3-8.436A62.468 62.468 0 0 0 7.743.111C7.733-.018 7.5-.047 7.5.092a122.338 122.338 0 0 1-.637 12.463c-.176 1.921-1.75 12.539-5.14 11.764-.567-.13-.858-.679-.946-1.52a13.133 13.133 0 0 1 .45-3.256" transform="translate(86 103)"/>
        <path id="Fill_67" data-name="Fill 67" class="cls-7" d="M1.2.215a14.649 14.649 0 0 0-.839 2.027 3.894 3.894 0 0 0-.348 1.666c.014.108.188.118.258.045a5.423 5.423 0 0 0 .862-1.621c.282-.627.581-1.249.841-1.882C2.147.029 1.4-.19 1.2.215" transform="translate(87 127)"/>
        <path id="Fill_68" data-name="Fill 68" class="cls-7" d="M22.638 2.086c-6.806 5.837-4.912 14.349-7.755 18.965-1.738 2.823-7.4 5.805-8.526 9.059-1.85 5.345 2.681 7.265 1.668 10.17C6.59 44.4 1.08 44.076.088 50.811s6.415 13.9 24 15.837 27.239-4.5 27.869-10.211-5.218-7.614-5.616-11.882c-.255-2.726 3.357-4.624 3.539-9.641S45.17 28.264 44.47 24c-.7-4.281 1.554-14.616-4.705-19.9S26-.794 22.638 2.086" transform="translate(54 20)"/>
        <path id="Fill_69" data-name="Fill 69" class="cls-7" d="M24.942 0A14.539 14.539 0 0 0 20.4 5.225a31.788 31.788 0 0 0-2.523 6.926 19.125 19.125 0 0 1-1.368 4.149 10.609 10.609 0 0 1-2.37 2.919c-1.909 1.725-4.189 3.034-5.9 4.971C6.611 26.024 5.347 28.478 6 30.978a25.588 25.588 0 0 0 1.809 3.739c.528 1.2.742 2.7-.292 3.7a23.736 23.736 0 0 1-3.165 1.943 11.155 11.155 0 0 0-2.58 2.49 8.611 8.611 0 0 0-1.625 6.776c1.039 5.482 6.192 8.6 10.948 10.562.663.273 1.33.54 2 .8.1.042.19-.107.086-.154C8.4 58.707 2.863 56.2 1.03 50.877a8.028 8.028 0 0 1 .822-7.077 10.193 10.193 0 0 1 2.522-2.65c.96-.708 2.069-1.142 3.046-1.814a3.238 3.238 0 0 0 1.5-2.895 7.949 7.949 0 0 0-1.314-3.5 6.507 6.507 0 0 1-1.126-3.689 7.1 7.1 0 0 1 1.413-3.521c1.485-2.1 3.685-3.479 5.658-5.069a11.9 11.9 0 0 0 4.3-5.931c.367-1.257.594-2.55.91-3.82a33.423 33.423 0 0 1 1.053-3.483 16.615 16.615 0 0 1 3.732-6.141A9.516 9.516 0 0 1 25 .094L24.942 0" transform="translate(52 22)"/>
        <path id="Fill_70" data-name="Fill 70" class="cls-7" d="M11.789 45.69a6.523 6.523 0 0 0-1.255-2.568c-.631-.777-1.393-1.434-2.091-2.151a4.994 4.994 0 0 1-1.482-2.383 4.672 4.672 0 0 1 .8-3.179 23.945 23.945 0 0 0 1.623-3.075 10.942 10.942 0 0 0 .69-3.29 11.106 11.106 0 0 0-1.825-6.561c-.618-.985-1.314-1.922-1.939-2.9a13.962 13.962 0 0 1-1.61-3.429C3.885 13.5 3.708 10.694 3.04 8A41.331 41.331 0 0 0 .1 0L0 .057a36.064 36.064 0 0 1 2.575 7.229c.576 2.361.8 4.767 1.226 7.153a17.655 17.655 0 0 0 .92 3.438 18.3 18.3 0 0 0 1.574 2.95c1.225 1.944 2.491 3.863 2.828 6.168a10.534 10.534 0 0 1-1.169 6.6C7 35.353 5.666 37.286 6.5 39.341c.7 1.739 2.409 2.781 3.54 4.222a6.827 6.827 0 0 1 1.226 5.577C10.29 54.079 5.2 56.531.44 56.775A.113.113 0 0 0 .446 57c4.14-.048 8.646-1.819 10.586-5.591a8.332 8.332 0 0 0 .756-5.719" transform="translate(95 27)"/>
        <path id="Fill_71" data-name="Fill 71" class="cls-11" d="M1.363 8.368c2.478 6.542 14.091 30.406 22.809 32.274 9.742 2.087 28.609-5.4 40.8-10.67 4.365-1.888-6.287-16.972-11.085-18.74-2.882-1.06-22.925 9.285-27.361 9.285-2.5 0-8.141-9.218-19.288-17.923C1.127-2.177-1.971-.432 1.363 8.368" transform="translate(85 56)"/>
        <path id="Fill_72" data-name="Fill 72" class="cls-11" d="M7.822 33c2.607-.763 17.314-5.053 20.272-7.053s11.057-8.379 9.768-10.819-3.808-.764-3.808-.764 3-3.24 1.478-5.576-5.353.4-5.353.4 2.836-3.553 1.156-5.775S26.257 4.6 26.257 4.6 29 1.47 26.852.226c-2.584-1.495-7 4.846-10.428 6.807C15.645 7.479 0 14.926 0 14.926L7.822 33" transform="translate(139 54)"/>
        <path id="Fill_73" data-name="Fill 73" class="cls-7" d="M10.729.125C7.456 5.016 5.221 6.56.058 8.818c-.1.044-.061.213.048.177C5.353 7.268 8.42 5.758 10.961.279c.124-.269-.077-.388-.232-.155" transform="translate(155 58)"/>
        <path id="Fill_74" data-name="Fill 74" class="cls-7" d="M11.741.085C7.843 4.608 5.385 6.217.036 8.86-.04 8.9.017 9.027.1 9 5.565 6.834 8.654 5.334 11.943.313c.149-.227-.024-.435-.2-.229" transform="translate(158 63)"/>
        <path id="Fill_75" data-name="Fill 75" class="cls-7" d="M11.769.143C7.855 4.127 5.353 5.948.071 7.8a.1.1 0 0 0 .057.2A18.589 18.589 0 0 0 11.878.274c.208-.28.137-.383-.109-.132" transform="translate(161 69)"/>
        <path id="Fill_76" data-name="Fill 76" class="cls-11" d="M0 12.659s4.383-6.381 6.928-8.366S21.772-1.715 22.82.8c1.354 3.253-5.272 6.928-8.761 8.318 0 0 3.141 7.522-1.025 11.155S0 12.659 0 12.659" transform="translate(134 56)"/>
        <path id="Fill_77" data-name="Fill 77" class="cls-7" d="M8.964 0C8.056 3.909 3.686 5.48.638 7.106a.342.342 0 0 0-.1.535c1.025 3.307 1.562 8.286-.52 11.22-.061.085.046.19.117.112 2.633-2.825 2.484-7.763 1.147-11.308C4.433 6.049 8.75 4.27 9 .008L8.964 0" transform="translate(148 58)"/>
        <path id="Fill_78" data-name="Fill 78" class="cls-12" d="M21.664 45 27 21.3A214.457 214.457 0 0 0 9.9 4.662C1.222-2.706-2.909-1.918 2.287 11.2S15.129 39.518 21.664 45" transform="translate(83 53)"/>
        <path id="Fill_79" data-name="Fill 79" class="cls-8" d="M21.664 45 27 21.3A214.457 214.457 0 0 0 9.9 4.662C1.222-2.706-2.909-1.918 2.287 11.2S15.129 39.518 21.664 45" transform="translate(83 53)"/>
        <path id="Fill_80" data-name="Fill 80" class="cls-7" d="M3.891 0a148.513 148.513 0 0 0-2.265 9.818q-.487 2.488-.912 4.99C.427 16.509.247 18.225 0 19.931c-.012.084.11.1.125.013.587-3.333 1.293-6.654 1.939-9.976S3.358 3.342 4 .028L3.891 0" transform="translate(103 74)"/>
        <path id="Fill_81" data-name="Fill 81" class="cls-17" d="M20 34a6.593 6.593 0 0 1 2-2.7 6.1 6.1 0 0 1-.827 1.486A6 6 0 0 1 20 34zm-6.7-2.35a6.054 6.054 0 0 1-.449-1.641 6.139 6.139 0 0 1-.02-1.706 6.7 6.7 0 0 1 .47 3.347zm4.675-8.63a4.414 4.414 0 0 1-.7-.053 5.953 5.953 0 0 1 1.62-.456 7.405 7.405 0 0 1 .977-.073 4.428 4.428 0 0 1 .7.053 5.867 5.867 0 0 1-1.62.457 7.623 7.623 0 0 1-.979.072zm-4.706-4.33a6.524 6.524 0 0 1-2.669-2.032 5.837 5.837 0 0 1 1.463.84 6.055 6.055 0 0 1 1.2 1.19zM4 14.537c-.132-.334-.271-.67-.407-.995l-.117-.282a3.431 3.431 0 0 1 .051-.654 6.535 6.535 0 0 1 .449 1.652c0 .029.006.058.01.087a1.743 1.743 0 0 1 .014.192zm14.048-.053a6.124 6.124 0 0 1-.45-1.641 6.179 6.179 0 0 1-.019-1.706 6.691 6.691 0 0 1 .47 3.347zM8.062 8.735A6.031 6.031 0 0 1 8.9 7.252a6.009 6.009 0 0 1 1.178-1.217 6.076 6.076 0 0 1-.832 1.483 5.986 5.986 0 0 1-1.181 1.215zM.7.583A4.439 4.439 0 0 1 0 .53 5.892 5.892 0 0 1 1.621.074 7.425 7.425 0 0 1 2.6 0a4.4 4.4 0 0 1 .7.053A5.847 5.847 0 0 1 1.681.51 7.622 7.622 0 0 1 .7.583z" transform="translate(84 56)"/>
        <path id="Fill_82" data-name="Fill 82" class="cls-7" d="M2.3 10.643C7.529 23.973 15.216 39.43 21.785 45L24 35.078.419 0C-.474 1.4.019 4.832 2.3 10.643" transform="translate(83 54)"/>
        <path id="Fill_83" data-name="Fill 83" class="cls-8" d="M47.618 51.837S31.167 55.752 0 53.048c0 0 12.187-39.071 22-49.605 4.467-4.793 8.832-4.06 12.532-.977.923.77 12.366 15.359 13.335 20.443.857 4.494-2.78 9.481-2.78 9.481l2.528 19.448" transform="translate(52 53)"/>
        <path id="Fill_84" data-name="Fill 84" class="cls-17" d="M28.976 49a6.173 6.173 0 0 1-1.494-.828 6.018 6.018 0 0 1-1.231-1.179A6.641 6.641 0 0 1 28.974 49zm13.707-.449a6.422 6.422 0 0 1-.479-3.308 5.931 5.931 0 0 1 .461 1.625 5.786 5.786 0 0 1 .02 1.683zM.718 47.882A4.7 4.7 0 0 1 0 47.83a6.2 6.2 0 0 1 1.658-.452 7.951 7.951 0 0 1 1-.072 4.661 4.661 0 0 1 .72.053 6.108 6.108 0 0 1-1.658.451 7.952 7.952 0 0 1-1.002.072zM13.99 44.8a6.18 6.18 0 0 1-1.494-.828 6.032 6.032 0 0 1-1.23-1.179 6.1 6.1 0 0 1 1.5.83 6.119 6.119 0 0 1 1.222 1.177zm20.5-1.263a6.4 6.4 0 0 1-.479-3.308 5.952 5.952 0 0 1 .46 1.625 5.8 5.8 0 0 1 .021 1.683zm-13.167-2.82a5.906 5.906 0 0 1 .846-1.466 6.1 6.1 0 0 1 1.2-1.207 6.544 6.544 0 0 1-2.047 2.674zM44 38.5a6.14 6.14 0 0 1-1.494-.829 6 6 0 0 1-1.235-1.171 6.657 6.657 0 0 1 2.729 2zm-36.945-.606a6.215 6.215 0 0 1-1.494-.829 6.026 6.026 0 0 1-1.23-1.178 6.1 6.1 0 0 1 1.5.829 6.1 6.1 0 0 1 1.228 1.176zm7.013-3.719a4.735 4.735 0 0 1-.716-.052 6.248 6.248 0 0 1 1.659-.452 7.821 7.821 0 0 1 1-.072 4.715 4.715 0 0 1 .721.052 6.158 6.158 0 0 1-1.658.452 8.092 8.092 0 0 1-1.006.071zm16.4-1.347a4.764 4.764 0 0 1-.72-.052 6.275 6.275 0 0 1 1.659-.451 7.875 7.875 0 0 1 1-.073 4.608 4.608 0 0 1 .718.053 6.139 6.139 0 0 1-1.657.451 7.958 7.958 0 0 1-.999.071zm12.776-1.559a6.414 6.414 0 0 1-.48-3.308 5.934 5.934 0 0 1 .461 1.625 5.824 5.824 0 0 1 .021 1.683zm-17.387-3.6a6.184 6.184 0 0 1-1.494-.829 5.982 5.982 0 0 1-1.231-1.178 6.641 6.641 0 0 1 2.727 2.005zm-18.75-.591a5.929 5.929 0 0 1 .846-1.465 6.046 6.046 0 0 1 1.2-1.207 6.039 6.039 0 0 1-.846 1.468 6.035 6.035 0 0 1-1.2 1.205zm9.011-1.457a6.426 6.426 0 0 1-.479-3.308 5.924 5.924 0 0 1 .461 1.625 5.828 5.828 0 0 1 .02 1.683zm19.414-.493a5.908 5.908 0 0 1 .845-1.465 6.1 6.1 0 0 1 1.2-1.207 6.521 6.521 0 0 1-2.046 2.673zm7.682-6.664a6.172 6.172 0 0 1-1.494-.829 6.035 6.035 0 0 1-1.231-1.178 6.043 6.043 0 0 1 1.5.829 6.127 6.127 0 0 1 1.229 1.176zm-19.3-.674a4.7 4.7 0 0 1-.718-.052 6.251 6.251 0 0 1 1.658-.452 7.841 7.841 0 0 1 1-.072 4.715 4.715 0 0 1 .721.052 6.147 6.147 0 0 1-1.659.452 7.953 7.953 0 0 1-1.002.072zm9.815-2.022a5.841 5.841 0 0 1-.46-1.622 5.878 5.878 0 0 1-.019-1.687 5.959 5.959 0 0 1 .46 1.625 5.865 5.865 0 0 1 .021 1.683zm-15.245-1.459a6.153 6.153 0 0 1-1.5-.829 6.039 6.039 0 0 1-1.23-1.18 6.651 6.651 0 0 1 2.728 2.005zm19.4-5.679a5.792 5.792 0 0 1 .851-1.468c.117-.151.229-.285.341-.41.08.114.17.236.247.342-.08.1-.153.2-.223.3l-.015.021a5.78 5.78 0 0 1-1.2 1.21zM22.021 6.166a5.942 5.942 0 0 1 .846-1.466 6.1 6.1 0 0 1 1.2-1.207 5.989 5.989 0 0 1-.846 1.468 6.012 6.012 0 0 1-1.2 1.205zm8.338-5.59a4.752 4.752 0 0 1-.719-.052A6.2 6.2 0 0 1 31.3.073a7.879 7.879 0 0 1 1-.073 4.61 4.61 0 0 1 .718.053A6.132 6.132 0 0 1 31.36.5a7.936 7.936 0 0 1-1.001.076z" transform="translate(54 56)"/>
        <path id="Fill_85" data-name="Fill 85" class="cls-7" d="M.107 0a49.072 49.072 0 0 1 2.615 4.174 35.847 35.847 0 0 1-.913-2.469l.055-.024c.282.595.57 1.187.806 1.8.211.553.418 1.107.613 1.666l.017.03a22.688 22.688 0 0 1 2.431 5.31 10.918 10.918 0 0 1-.1 5.215 13.291 13.291 0 0 1-.959 2.529 7.9 7.9 0 0 1-1.262 1.996c.3 1.785.491 3.6.712 5.4a45.3 45.3 0 0 1 .52 5.286.091.091 0 0 1-.18.021c-.034-.126-.07-.251-.109-.376l.016-.059c-.363-1.621-.521-3.317-.731-4.96a548.315 548.315 0 0 1-.629-5.289c-.007-.082.769-1.493 1.072-2.172a15.892 15.892 0 0 0 .89-2.578 10.2 10.2 0 0 0 .1-5.117 24.962 24.962 0 0 0-2.278-5.149A319.405 319.405 0 0 0 0 .083L.107 0" transform="translate(94 65)"/>
        <path id="Fill_86" data-name="Fill 86" class="cls-11" d="M19.7 3.006C11.481 14.016-4.208 40.073 1.058 45.812c8.658 9.435 29.481 17.417 35.964 19.167 2.8.755 12.168-19.516 9.508-21.094-3.192-1.894-25.494-8.649-25.43-10.528.035-1.065 2.356-10 4.268-21.468 2.219-13.3-1.749-14.129-5.667-8.882" transform="translate(52 56)"/>
        <path id="Fill_87" data-name="Fill 87" class="cls-11" d="M2.753 7.222s4.968-1.644 10.17-4.046C15.824 1.836 21-.009 23.574 0c3.85.015 19.94 2.582 19.414 6.572-.476 3.612-14.026-.382-14.026-.382s14.022 2.8 12.664 7.041-16.078-2.346-16.078-2.346 14.343 3.2 12.265 7.354c-1.572 3.135-15.234-2.067-15.234-2.067s12.309 2.842 10.83 6.137c-1.635 3.642-14.541-.353-14.541-.353C13.723 29.686 5.764 32.7.15 30.071c-.907-.424 2.6-22.849 2.6-22.849" transform="translate(87 91)"/>
        <path id="Fill_88" data-name="Fill 88" class="cls-7" d="M.018 0C1.7.256 3.4.5 5.057.9s3.291.854 4.9 1.4A29.61 29.61 0 0 1 15.993 5 64.446 64.446 0 0 0 4.926 1.336C3.278.938 1.65.459 0 .06L.018 0" transform="translate(112 96)"/>
        <path id="Fill_89" data-name="Fill 89" class="cls-7" d="M.013 0c2.032.4 4.064.718 6.078 1.2s3.862 1.105 5.827 1.717c.152.047.075.11-.078.068-1.989-.536-3.87-.884-5.865-1.4S2 .487 0 .046L.013 0" transform="translate(110 102)"/>
        <path id="Fill_90" data-name="Fill 90" class="cls-7" d="M.018 0a49.513 49.513 0 0 1 9.906 2.894c.16.061.044.142-.123.09C6.525 1.958 3.963 1.13 0 .12L.018 0" transform="translate(108 106)"/>
        <path id="Fill_91" data-name="Fill 91" class="cls-7" d="M.033 2.334a17.192 17.192 0 0 1 2.661-1.151A20.538 20.538 0 0 1 5.319.4 16 16 0 0 1 11.25.179a60.343 60.343 0 0 1 13.707 3.687c.075.027.045.152-.036.132C21.205 3.1 17.157 1.676 11.491.91A17.844 17.844 0 0 0 5.63.957c-.995.194-1.967.473-2.936.756-.86.251-1.712.595-2.594.769-.082.016-.14-.1-.067-.147" transform="translate(103 90)"/>
        <path id="Fill_92" data-name="Fill 92" class="cls-8" d="m0 43 22.56-9.29a218.479 218.479 0 0 0 4.172-23.644C27.961-1.315 25-4.254 17.073 7.581S.871 34.469 0 43" transform="translate(51 55)"/>
        <path id="Fill_93" data-name="Fill 93" class="cls-17" d="M2.763 35a6.217 6.217 0 0 1-1.513-.844A6.082 6.082 0 0 1 0 32.957a6.138 6.138 0 0 1 1.517.844A6.166 6.166 0 0 1 2.761 35zm7.1-3.784a4.749 4.749 0 0 1-.724-.052 6.315 6.315 0 0 1 1.679-.46 7.943 7.943 0 0 1 1.013-.073 4.74 4.74 0 0 1 .73.053 6.189 6.189 0 0 1-1.679.459 8.1 8.1 0 0 1-1.016.073zM2.817 24a6.007 6.007 0 0 1 .857-1.5 6.127 6.127 0 0 1 1.219-1.227 6.143 6.143 0 0 1-.858 1.493 6.106 6.106 0 0 1-1.215 1.229zm9.128-1.482a6.553 6.553 0 0 1-.486-3.366 6.043 6.043 0 0 1 .467 1.653 5.964 5.964 0 0 1 .02 1.712zm-8.089-9.197.141-.232c.047-.078.1-.158.142-.234a6.608 6.608 0 0 1 .924-.07 4.834 4.834 0 0 1 .726.053 6 6 0 0 1-1.676.459l-.136.013-.122.012zm10.486-2.315a6.242 6.242 0 0 1-1.515-.844 6.13 6.13 0 0 1-1.247-1.2 6.132 6.132 0 0 1 1.517.844A6.151 6.151 0 0 1 14.34 11zM11.318 3.1a4.462 4.462 0 0 1-.275-.762c.1-.141.2-.285.311-.426a4.622 4.622 0 0 1-.035 1.188zm6.606-.382a6.038 6.038 0 0 1 .857-1.49A6.163 6.163 0 0 1 20 0a6.106 6.106 0 0 1-.857 1.493 6.1 6.1 0 0 1-1.216 1.226z" transform="translate(58 59)"/>
        <path id="Fill_94" data-name="Fill 94" class="cls-7" d="M4.924 1.265a11.873 11.873 0 0 0-.847 2.02 41.57 41.57 0 0 0-.242.7q.3-1.949.582-3.9C4.43 0 4.3-.037 4.279.051 3.685 2.992.96 16.773.837 17.488L0 17.89l.051.11.943-.412c.3-.628 2.447-11.146 2.653-12.424l.084-.172c.072-.183.141-.365.213-.547.132-.337.251-.678.373-1.019A14.477 14.477 0 0 0 5 1.293l-.076-.029" transform="translate(73 71)"/>
        <path id="Fill_95" data-name="Fill 95" class="cls-7" d="M19.965 0a21.718 21.718 0 0 0-2.622.829c-.871.288-1.746.56-2.612.862-1.67.582-3.322 1.21-4.97 1.86A100.97 100.97 0 0 0 0 7.875L.053 8C3.431 6.75 6.75 5.33 10.1 4c1.647-.653 3.3-1.3 4.944-1.949.824-.326 1.642-.672 2.468-.994A24.806 24.806 0 0 0 20 .081L19.965 0" transform="translate(53 86)"/>
        <path id="Fill_96" data-name="Fill 96" class="cls-11" d="M.022 14.672c.186.859 4.106 6.464 7.918 6.325 1.242-.048 1.291-7.022 1.291-7.022l.119-.514L11 6.266 2.809.733 1.625 0S1.3 2 .919 4.493c-.018.115-.037.232-.054.355-.025.141-.051.273-.069.4-.06.377-.121.752-.175 1.136-.041.289-.083.57-.121.874s-.074.6-.115.907a49.023 49.023 0 0 0-.367 6.507" transform="translate(78 40)"/>
        <path id="Fill_97" data-name="Fill 97" class="cls-7" d="M0 4.339A14.324 14.324 0 0 0 8.364 13L10 6.051 1.874.708.7 0S.377 1.931 0 4.339" transform="translate(79 40)"/>
        <path id="Fill_98" data-name="Fill 98" class="cls-11" d="M22.769 14.385c1.61 12.7-5.645 15.126-8.323 15.478-2.43.319-10.746 1.091-13.63-11.374S3.2 1.24 8.717.209 21.159 1.68 22.769 14.385" transform="translate(77 21)"/>
        <path id="Fill_99" data-name="Fill 99" class="cls-7" d="M1.585 1C1.33 1 1.1.957.846.931a1.276 1.276 0 0 1-.74-.2A.332.332 0 0 1 .057.3 1 1 0 0 1 .963 0a1.455 1.455 0 0 1 .923.366C2.149.6 1.92 1 1.585 1" transform="translate(96 32)"/>
        <path id="Fill_100" data-name="Fill 100" class="cls-7" d="M.519 1.985a5.688 5.688 0 0 0 .728-.363 1.218 1.218 0 0 0 .7-.587A.861.861 0 0 0 1.889.3.712.712 0 0 0 .908.112a1.636 1.636 0 0 0-.842.92c-.21.47.116 1.07.452.953" transform="translate(89 33)"/>
        <path id="Fill_101" data-name="Fill 101" class="cls-7" d="m.794 0-.07.072C.9.791.919 1.635 0 1.96L.016 2C1.172 1.783 1.129.663.794 0" transform="translate(91 37)"/>
        <path id="Fill_102" data-name="Fill 102" class="cls-7" d="M.969 0C-.473.083-.21 3.074 1.126 3 2.44 2.924 2.177-.067.969 0" transform="translate(89 36)"/>
        <path id="Fill_103" data-name="Fill 103" class="cls-7" d="M1.8.016a2.328 2.328 0 0 1-.8.44A1.287 1.287 0 0 1 .049.075L0 .105A.941.941 0 0 0 .961 1 1.012 1.012 0 0 0 2 .154a.137.137 0 0 0-.2-.138" transform="translate(88 37)"/>
        <path id="Fill_104" data-name="Fill 104" class="cls-7" d="m.017 0 .065.064C.12.855.294 1.753 1 1.955V2C.151 1.95-.068.755.017 0" transform="translate(96 37)"/>
        <path id="Fill_105" data-name="Fill 105" class="cls-7" d="M.726.014c1.418-.239 1.768 2.754.456 2.975C-.11 3.207-.461.213.726.014" transform="translate(96 35)"/>
        <path id="Fill_106" data-name="Fill 106" class="cls-7" d="M.16.235A2.966 2.966 0 0 0 1.1.5a1.118 1.118 0 0 0 .812-.5l.058.019a.734.734 0 0 1-.655.958A1.258 1.258 0 0 1 .013.39.114.114 0 0 1 .16.235" transform="translate(97 36)"/>
        <path id="Fill_107" data-name="Fill 107" class="cls-7" d="M.091 0c.241.246.486.59.838.605A2.328 2.328 0 0 0 1.955.274L2 .327A1.253 1.253 0 0 1 .8.991C.358.926.125.506 0 .055L.091 0" transform="translate(92 44)"/>
        <path id="Fill_108" data-name="Fill 108" class="cls-7" d="M2.658 8.775s.284 1.332.341 1.97c0 .059-.126.1-.313.138h-.022A2.429 2.429 0 0 1 0 10.059l.074-.1a3.553 3.553 0 0 0 2.48.507c.023-.182-.553-2.262-.466-2.281a4.255 4.255 0 0 1 1.29.178C2.856 5.571 1.949 2.9 1.466.1c-.016-.1.107-.14.141-.054A51.374 51.374 0 0 1 4 8.843c.079.357-1.107.015-1.338-.068" transform="translate(92 32)"/>
        <path id="Fill_109" data-name="Fill 109" class="cls-7" d="M3 19c2.03-.071 2.016-4.3 2.016-4.3s4.093-.445 4.784-6.419A8.96 8.96 0 0 1 8.534 13.3s7.124-1.562 9.48-7.876a15.807 15.807 0 0 1-1.877 4.386 8.482 8.482 0 0 0 4.128-3.769S21.919 9.349 23 10.193c0 0-1.72-12.461-13.258-9.827 0 0-7.264 1.3-9.239 7.328S3 19 3 19" transform="translate(76 21)"/>
        <path id="Fill_110" data-name="Fill 110" class="cls-12" d="M4 8a3.976 3.976 0 1 1 .032 0zM4 .535h-.03a3.465 3.465 0 1 0 .03 0z" transform="translate(85 34)"/>
        <path id="Fill_111" data-name="Fill 111" class="cls-12" d="M3.22 8a2.787 2.787 0 0 1-2.063-1.037A4.848 4.848 0 0 1 .043 4.374a4.8 4.8 0 0 1 .49-2.89A2.653 2.653 0 0 1 2.5.018 2.306 2.306 0 0 1 2.789 0a2.713 2.713 0 0 1 1.98.95 4.8 4.8 0 0 1 1.189 2.678c.275 2.194-.827 4.148-2.458 4.355A2.543 2.543 0 0 1 3.238 8zM2.784.537H2.77l-.2.013A2.135 2.135 0 0 0 1 1.743a4.257 4.257 0 0 0-.427 2.564 4.379 4.379 0 0 0 .932 2.253 2.274 2.274 0 0 0 1.707.905 1.754 1.754 0 0 0 .221-.014C4.77 7.281 5.665 5.6 5.427 3.695a4.265 4.265 0 0 0-1.049-2.378 2.2 2.2 0 0 0-1.594-.78z" transform="translate(95 33)"/>
        <path id="Fill_112" data-name="Fill 112" class="cls-12" d="M.4 1 0 .717a2.7 2.7 0 0 1 3-.4l-.349.315C1.649-.007.45.959.4 1" transform="translate(93 36)"/>
        <path id="Fill_113" data-name="Fill 113" class="cls-12" d="M.511 3 0 2.838C.088 2.633.889.826 2.069.526 3.172.25 9.673.009 9.984 0L10 .469C7.9.524 3.074.76 2.222.976 1.443 1.173.723 2.5.511 3" transform="translate(76 38)"/>
        <path id="Fill_114" data-name="Fill 114" class="cls-11" d="M3.244 7.85a2.421 2.421 0 0 0 .579.13 1.79 1.79 0 0 0 .584-.01 1.651 1.651 0 0 0 .7-.277 2.054 2.054 0 0 0 .451-.4A2.567 2.567 0 0 0 6 6.534l-.824-3.472S2.31-.907.6.193s.55 6.94 2.639 7.658" transform="translate(75 36)"/>
        <path id="Fill_115" data-name="Fill 115" class="cls-7" d="M.009 0 0 .06a5.769 5.769 0 0 1 3.2 3.433 1.315 1.315 0 0 0-1.939-.26l.047.081a1.467 1.467 0 0 1 1.6.418 6.657 6.657 0 0 1 .809 1.2c.082.136.337.05.276-.107l-.017-.035C3.929 2.811 2.217.11.009 0" transform="translate(76 38)"/>
        <path id="Fill_116" data-name="Fill 116" class="cls-17" d="M.015.619a.5.5 0 1 0 .366-.6.5.5 0 0 0-.366.6" transform="translate(78 43)"/>
        <path id="Fill_117" data-name="Fill 117" class="cls-17" d="M.015.62a.5.5 0 1 0 .367-.6.5.5 0 0 0-.367.6" transform="translate(77 42)"/>
        <path id="Fill_118" data-name="Fill 118" class="cls-2" d="M11.056.913 9.179 6.781 1.814 0 0 2.452S7.482 13.5 7.492 12.982L9.476 7.9 13 11.111l-.807-8.594L11.056.913" transform="translate(77 54)"/>
        <path id="Fill_119" data-name="Fill 119" class="cls-7" d="M12.615 4.306c-.181-1.432-.324-2.878-.57-4.3L11.95 0c-.192 1.407.528 6.875.6 8.192l-.015-.014c-.148-.14-3.284-2.848-3.31-2.8-.448.822-1.919 4.571-2.015 4.909C6.017 8.51 1.466 2.066.08.4L0 .459C1.074 2.347 7.107 11.031 7.19 11a57.33 57.33 0 0 0 2.088-5.435A37.386 37.386 0 0 0 13 9.03a46.412 46.412 0 0 0-.385-4.724" transform="translate(77 56)"/>
        <path id="Fill_120" data-name="Fill 120" class="cls-2" d="M0 116h90V0H0z" transform="translate(145 67)"/>
        <path id="Fill_121" data-name="Fill 121" class="cls-3" d="M.383 116H.138v-.246L0 .381V0h.383l90.323.088H91v.293l-.1 57.767-.2 57.606-.194-57.767L90.413.674h.293l-.294-.293v.293L.765.761v-.38l-.382.38h.382L.629 115.51l44.85.087 45.226.158-45.1.157z" transform="translate(144 67)"/>
        <path id="Fill_122" data-name="Fill 122" class="cls-4" d="m0 .5 35-.114L70 .5 35 .614 0 .5" transform="translate(155 92)"/>
        <path id="Fill_123" data-name="Fill 123" class="cls-4" d="m0 .5 35-.114L70 .5 35 .614 0 .5" transform="translate(155 94)"/>
        <path id="Fill_124" data-name="Fill 124" class="cls-4" d="m0 .5 35-.114L70 .5 35 .614 0 .5" transform="translate(155 97)"/>
        <path id="Fill_125" data-name="Fill 125" class="cls-4" d="m0 .5 35-.114L70 .5 35 .614 0 .5" transform="translate(155 100)"/>
        <path id="Fill_126" data-name="Fill 126" class="cls-4" d="m0 .5 35-.114L70 .5 35 .614 0 .5" transform="translate(155 103)"/>
        <path id="Fill_127" data-name="Fill 127" class="cls-4" d="m0 .5 35-.114L70 .5 35 .614 0 .5" transform="translate(155 106)"/>
        <path id="Fill_128" data-name="Fill 128" class="cls-4" d="m0 .5 35-.114L70 .5 35 .614 0 .5" transform="translate(155 109)"/>
        <path id="Fill_129" data-name="Fill 129" class="cls-4" d="m0 .5 35-.114L70 .5 35 .614 0 .5" transform="translate(155 112)"/>
        <path id="Fill_130" data-name="Fill 130" class="cls-4" d="m0 .5 35-.114L70 .5 35 .614 0 .5" transform="translate(155 115)"/>
        <path id="Fill_131" data-name="Fill 131" class="cls-4" d="m0 .5 35-.114L70 .5 35 .614 0 .5" transform="translate(155 117)"/>
        <path id="Fill_132" data-name="Fill 132" class="cls-4" d="m0 .5 35-.114L70 .5 35 .614 0 .5" transform="translate(155 120)"/>
        <path id="Fill_133" data-name="Fill 133" class="cls-4" d="m0 .5 35-.114L70 .5 35 .614 0 .5" transform="translate(155 123)"/>
        <path id="Fill_134" data-name="Fill 134" class="cls-4" d="m0 .5 35-.114L70 .5 35 .614 0 .5" transform="translate(155 126)"/>
        <path id="Fill_135" data-name="Fill 135" class="cls-4" d="m0 .5 35-.114L70 .5 35 .614 0 .5" transform="translate(155 129)"/>
        <path id="Fill_136" data-name="Fill 136" class="cls-4" d="m0 .5 35-.114L70 .5 35 .614 0 .5" transform="translate(155 132)"/>
        <path id="Fill_137" data-name="Fill 137" class="cls-12" d="M0 12h5V0H0z" transform="translate(162 124)"/>
        <path id="Fill_138" data-name="Fill 138" class="cls-12" d="M0 18h5V0H0z" transform="translate(172 117)"/>
        <path id="Fill_139" data-name="Fill 139" class="cls-8" d="M0 26h5V0H0z" transform="translate(182 110)"/>
        <path id="Fill_140" data-name="Fill 140" class="cls-8" d="M0 29h5V0H0z" transform="translate(192 107)"/>
        <path id="Fill_141" data-name="Fill 141" class="cls-8" d="M0 34h5V0H0z" transform="translate(202 101)"/>
        <path id="Fill_142" data-name="Fill 142" class="cls-8" d="M0 40h5V0H0z" transform="translate(212 96)"/>
        <path id="Fill_143" data-name="Fill 143" class="cls-4" d="m.332 0 .139 11.414.1 11.414c.066 7.609.085 15.218.1 22.827l-.331-.331 17.16-.014 17.166.04 17.168.109 17.166.2-17.166.2-17.168.109L17.5 46 .332 45.986H0v-.331c.012-7.61.031-15.218.1-22.827l.1-11.414L.332 0" transform="translate(156 90)"/>
        <path id="Fill_144" data-name="Fill 144" class="cls-4" d="M0 .81h5V.19H0z" transform="translate(162 138)"/>
        <path id="Fill_145" data-name="Fill 145" class="cls-4" d="M0 .81h5V.19H0z" transform="translate(172 138)"/>
        <path id="Fill_146" data-name="Fill 146" class="cls-4" d="M0 .81h5V.19H0z" transform="translate(182 138)"/>
        <path id="Fill_147" data-name="Fill 147" class="cls-4" d="M0 .81h5V.19H0z" transform="translate(192 138)"/>
        <path id="Fill_148" data-name="Fill 148" class="cls-4" d="M0 .81h5V.19H0z" transform="translate(202 138)"/>
        <path id="Fill_149" data-name="Fill 149" class="cls-4" d="M0 .81h5V.19H0z" transform="translate(212 138)"/>
        <path id="Fill_150" data-name="Fill 150" class="cls-7" d="M0 27.954a65.964 65.964 0 0 0 7.849-.589 77.178 77.178 0 0 0 7.733-1.379 67.362 67.362 0 0 0 14.764-5.146 52.642 52.642 0 0 0 12.9-8.692l.726-.652.689-.69 1.37-1.388c.847-.984 1.755-1.921 2.525-2.971A53.223 53.223 0 0 0 52.958 0L53 .023a46.4 46.4 0 0 1-9.336 12.56 46.232 46.232 0 0 1-6.144 4.958 52.338 52.338 0 0 1-6.838 3.976 64.554 64.554 0 0 1-14.974 5.031A65.4 65.4 0 0 1 0 27.954" transform="translate(162 97)"/>
        <path id="Fill_151" data-name="Fill 151" class="cls-7" d="m5 4.8-.679.2-.832-3.942L.217 2.326 0 1.543 3.985 0 5 4.8" transform="translate(211 96)"/>
        <path id="Fill_152" data-name="Fill 152" class="cls-3" d="M0 3h73V0H0z" transform="translate(153 153)"/>
        <path id="Fill_153" data-name="Fill 153" class="cls-3" d="M0 3h41V0H0z" transform="translate(153 161)"/>
        <path id="Fill_154" data-name="Fill 154" class="cls-3" d="M0 3h41V0H0z" transform="translate(169 80)"/>
        <path id="Fill_155" data-name="Fill 155" class="cls-12" d="M111 108.83 23.168 127 0 13.491 65.214 0l27.031 16.949L111 108.83" transform="translate(107 102)"/>
        <path id="Fill_156" data-name="Fill 156" class="cls-8" d="M23.334 127 0 13.491 65.682 0l27.224 16.949L98 41.727H85.952l3.791-.779-.6-2.915-17.98 3.694h-8.524v1.751l-45.557 9.357.6 2.915 44.957-9.234v4.63l-44.045 9.045.6 2.916 43.445-8.924v4.629l-42.532 8.737.6 2.914 41.932-8.613v4.629l-41.02 8.426.6 2.915 40.42-8.3v4.63l-39.507 8.113.6 2.914 38.908-7.992v4.63l-37.995 7.8.6 2.916 37.4-7.681v4.629l-36.489 7.497.6 2.914 35.883-7.37v4.63l-34.97 7.183.6 2.915 34.37-7.06v4.63l-33.458 6.872.6 2.914 32.859-6.749v11.072L23.334 127" transform="translate(106 102)"/>
        <path id="Fill_157" data-name="Fill 157" class="cls-15" d="m0 0 27 17.241L4.41 22 0 0" transform="translate(172 102)"/>
        <path id="Fill_158" data-name="Fill 158" class="cls-18" d="M0 10.089 49.4 0l.6 2.911L.6 13 0 10.089" transform="translate(119 123)"/>
        <path id="Fill_159" data-name="Fill 159" class="cls-18" d="M0 10.089 49.4 0l.6 2.911L.6 13 0 10.089" transform="translate(120 131)"/>
        <path id="Fill_160" data-name="Fill 160" class="cls-18" d="M0 10.089 49.4 0l.6 2.911L.6 13 0 10.089" transform="translate(122 138)"/>
        <path id="Fill_161" data-name="Fill 161" class="cls-18" d="M0 15.038 71.407 0 72 2.962.594 18 0 15.038" transform="translate(124 140)"/>
        <path id="Fill_162" data-name="Fill 162" class="cls-18" d="M0 15.038 71.407 0 72 2.962.594 18 0 15.038" transform="translate(125 148)"/>
        <path id="Fill_163" data-name="Fill 163" class="cls-18" d="M0 15.039 71.406 0 72 2.962.594 18 0 15.039" transform="translate(127 155)"/>
        <path id="Fill_164" data-name="Fill 164" class="cls-18" d="M0 15.038 71.407 0 72 2.961.594 18 0 15.038" transform="translate(128 162)"/>
        <path id="Fill_165" data-name="Fill 165" class="cls-18" d="M0 15.039 71.407 0 72 2.962.594 18 0 15.039" transform="translate(130 170)"/>
        <path id="Fill_166" data-name="Fill 166" class="cls-18" d="M0 15.038 71.407 0 72 2.962.594 18 0 15.038" transform="translate(131 177)"/>
        <path id="Fill_167" data-name="Fill 167" class="cls-18" d="M0 15.039 71.407 0 72 2.962.594 18 0 15.039" transform="translate(133 184)"/>
        <path id="Fill_168" data-name="Fill 168" class="cls-18" d="M0 15.038 71.407 0 72 2.961.594 18 0 15.038" transform="translate(134 192)"/>
        <path id="Fill_169" data-name="Fill 169" class="cls-18" d="M0 15.039 71.407 0 72 2.962.593 18 0 15.039" transform="translate(136 199)"/>
        <g id="Group_173" data-name="Group 173" transform="translate(291)">
            <path id="Fill_170" data-name="Fill 170" class="cls-2" d="M106.552 128.3q-49.4 3.6-98.6 7.191C-3.281 92.724 8.75 49.958 0 7.191Q49.4 3.595 98.6 0c11.218 42.767-.814 85.534 7.948 128.3" transform="translate(.835 .6)"/>
            <path id="Fill_172" data-name="Fill 172" class="cls-3" d="M8.239 136.044a9.834 9.834 0 0 1-.057-.215l-.006-.025a141.848 141.848 0 0 1-3.356-16.946c-.735-5.321-1.235-10.864-1.529-16.945-.546-11.3-.276-22.783-.014-33.89.467-19.832.949-40.34-3.2-60.51-.009-.061-.022-.122-.035-.183L0 7.124l.128-.009h.01L.383 7.1C32.147 4.822 65.325 2.441 98.995.02l.271-.02.072.274a141.63 141.63 0 0 1 3.294 16.937c.716 5.318 1.2 10.859 1.471 16.937.508 11.291.2 22.771-.1 33.873-.533 19.854-1.083 40.383 3.01 60.574a348985.12 348985.12 0 0 0-98.539 7.431l-.236.018zM.924 7.844a180.468 180.468 0 0 1 3.2 30.091c.309 10.03.046 20.228-.209 30.091-.571 22.124-1.162 45 4.672 67.5l-.238.017.3.223-.062-.24c33.715-2.379 66.831-4.712 98.428-6.933a179.608 179.608 0 0 1-3.373-30.287c-.352-10.1-.121-20.36.1-30.287.5-22.1 1.013-44.956-4.875-67.433L99 .578l.135-.01-.167-.127L98.8.314l.069.262v.012A305237.46 305237.46 0 0 1 .924 7.844l-.078-.387-.152.207-.152.207h.063z" transform="translate(.372 .306)"/>
        </g>
        <path id="Fill_174" data-name="Fill 174" class="cls-3" d="M0 3.838 55.67 0q.18 1.581.33 3.163L.259 7Q.143 5.419 0 3.838" transform="translate(304 22)"/>
        <path id="Fill_175" data-name="Fill 175" class="cls-3" d="M0 3.837 55.809 0q.108 1.581.191 3.162Q28.084 5.082.134 7 .077 5.419 0 3.837" transform="translate(304 31)"/>
        <path id="Fill_176" data-name="Fill 176" class="cls-3" d="M0 3.838 55.92 0q.049 1.582.08 3.162L.037 7Q.026 5.419 0 3.838" transform="translate(304 39)"/>
        <path id="Fill_177" data-name="Fill 177" class="cls-3" d="M.031 5.76 81.986 0Q82 1.619 82 3.24L0 9q.021-1.62.031-3.24" transform="translate(304 45)"/>
        <path id="Fill_178" data-name="Fill 178" class="cls-3" d="M.07 5.761 82 0q-.019 1.62-.046 3.24L0 9l.07-3.239" transform="translate(304 54)"/>
        <path id="Fill_179" data-name="Fill 179" class="cls-3" d="M.081 5.76 82 0q-.035 1.62-.076 3.24L0 9l.081-3.24" transform="translate(304 62)"/>
        <path id="Fill_180" data-name="Fill 180" class="cls-3" d="M.063 5.76 82 0q-.041 1.62-.079 3.24L0 9q.028-1.62.063-3.24" transform="translate(304 70)"/>
        <path id="Fill_181" data-name="Fill 181" class="cls-3" d="M.017 5.761 82 0q-.032 1.62-.053 3.24L0 9q0-1.619.017-3.239" transform="translate(304 79)"/>
        <path id="Fill_182" data-name="Fill 182" class="cls-3" d="M0 5.76Q40.975 2.88 82 0v3.24Q41 6.12.059 9 .02 7.38 0 5.76" transform="translate(304 87)"/>
        <path id="Fill_183" data-name="Fill 183" class="cls-3" d="M0 5.761Q40.925 2.88 81.915 0q.033 1.62.085 3.239Q41.046 6.12.162 9 .07 7.38 0 5.761" transform="translate(304 95)"/>
        <path id="Fill_184" data-name="Fill 184" class="cls-3" d="M0 5.76Q40.859 2.88 81.8 0q.087 1.619.2 3.24Q41.1 6.12.295 9 .132 7.38 0 5.76" transform="translate(304 103)"/>
        <path id="Fill_185" data-name="Fill 185" class="cls-3" d="M0 5.76Q40.281 2.879 80.664 0q.152 1.62.336 3.239Q40.672 6.12.451 9 .208 7.38 0 5.76" transform="translate(306 112)"/>
        <path id="Fill_186" data-name="Fill 186" class="cls-12" d="M101.343 144Q50.09 135.337 0 126.673C4.323 84.449 25.755 42.224 24.656 0Q75.909 8.663 126 17.327c-4.324 42.224-25.756 84.449-24.657 126.673" transform="translate(283 31)"/>
        <path id="Fill_187" data-name="Fill 187" class="cls-8" d="m101.343 144-8.024-1.357-.2-.033Q76.5 139.795 60 136.978v-10.287H.1l-.1-.018C4.215 85.5 24.7 44.327 24.7 3.154q0-1.577-.041-3.154Q75.909 8.663 126 17.327c-2.039 19.912-7.882 39.822-13.373 59.733l-.072.259c-4.793 17.388-9.3 34.773-10.762 52.161l-.016.195a135.041 135.041 0 0 0-.475 11.171q0 1.577.041 3.154" transform="translate(283 31)"/>
        <path id="Fill_188" data-name="Fill 188" class="cls-18" d="M.428 0Q28.347 4.859 56 9.718q-.284 1.641-.594 3.282Q27.818 8.14 0 3.281.229 1.641.428 0" transform="translate(316 51)"/>
        <path id="Fill_189" data-name="Fill 189" class="cls-18" d="M.565 0Q27.89 4.859 55 9.719q-.34 1.641-.7 3.281Q27.241 8.141 0 3.281.3 1.641.565 0" transform="translate(315 59)"/>
        <path id="Fill_190" data-name="Fill 190" class="cls-18" d="M.684 0Q27.928 4.859 55 9.718q-.386 1.641-.788 3.282Q27.175 8.14 0 3.281.353 1.641.684 0" transform="translate(313 67)"/>
        <path id="Fill_191" data-name="Fill 191" class="cls-18" d="M.776 0Q40.517 6.907 80 13.816q-.434 1.592-.874 3.184Q39.646 10.091 0 3.184.4 1.592.776 0" transform="translate(311 76)"/>
        <path id="Fill_192" data-name="Fill 192" class="cls-18" d="M.844 0Q40.5 6.907 80 13.816L79.1 17Q39.586 10.091 0 3.184.426 1.592.844 0" transform="translate(309 84)"/>
        <path id="Fill_193" data-name="Fill 193" class="cls-18" d="M.884 0Q40.477 6.908 80 13.816L79.1 17Q39.54 10.092 0 3.184.444 1.592.884 0" transform="translate(307 92)"/>
        <path id="Fill_194" data-name="Fill 194" class="cls-18" d="M.9 0Q40.437 6.908 80 13.816q-.437 1.592-.867 3.184Q39.507 10.092 0 3.185L.9 0" transform="translate(304 100)"/>
        <path id="Fill_195" data-name="Fill 195" class="cls-18" d="M.887 0Q40.383 6.907 80 13.816q-.412 1.592-.81 3.184Q39.487 10.091 0 3.184.441 1.592.887 0" transform="translate(302 109)"/>
        <path id="Fill_196" data-name="Fill 196" class="cls-18" d="M.851 0Q40.317 6.907 80 13.816q-.374 1.592-.728 3.184Q39.481 10.091 0 3.184.42 1.592.851 0" transform="translate(300 117)"/>
        <path id="Fill_197" data-name="Fill 197" class="cls-18" d="M.786 0Q40.237 6.907 80 13.816q-.324 1.593-.622 3.184Q39.487 10.091 0 3.184.385 1.591.786 0" transform="translate(298 125)"/>
        <path id="Fill_198" data-name="Fill 198" class="cls-18" d="M.7 0Q40.647 6.907 81 13.816q-.261 1.592-.494 3.184Q40 10.091 0 3.184.342 1.592.7 0" transform="translate(296 133)"/>
        <path id="Fill_199" data-name="Fill 199" class="cls-18" d="M.589 0Q40.543 6.908 81 13.817q-.184 1.591-.335 3.183Q40.035 10.092 0 3.184.282 1.592.589 0" transform="translate(295 142)"/>
        <path id="Fill_200" data-name="Fill 200" class="cls-12" d="M0 127h174V0H0z" transform="translate(169 157)"/>
        <path id="Fill_201" data-name="Fill 201" class="cls-12" d="M61.468 0H0v13h65L61.468 0" transform="translate(169 144)"/>
        <path id="Fill_202" data-name="Fill 202" class="cls-19" d="M0 127h174V0H0z" transform="translate(169 157)"/>
        <path id="Fill_203" data-name="Fill 203" class="cls-19" d="M65 13H0V0h61.468L65 13" transform="translate(169 144)"/>
        <path id="Fill_204" data-name="Fill 204" class="cls-2" d="M100.157 144A22640.35 22640.35 0 0 1 0 115.148C8.246 76.7 31.346 39.027 32.919 0A9418.766 9418.766 0 0 1 133 27.539c-8.358 39.078-31.432 77.123-32.843 116.461" transform="translate(242 92)"/>
        <path id="Fill_205" data-name="Fill 205" class="cls-3" d="M100.735 145A23137.24 23137.24 0 0 1 .238 116.258L0 116.19v-.021l.041-.2C3.4 100.267 9.311 84.423 15.031 69.1 23.381 46.732 32.016 23.6 32.9.356c0-.061 0-.121.006-.182V.161q0-.08.005-.161L33 .023l.313.084a9238.272 9238.272 0 0 1 100.414 27.745l.113.032h.009l.15.042-.032.143-.024.109c-3.438 15.883-9.39 31.85-15.145 47.292-8.39 22.511-17.065 45.785-18.047 69.117a122.551 122.551 0 0 1 1.893-17.122 178.686 178.686 0 0 1 4.07-17.405c3.274-11.571 7.582-23.286 11.749-34.614 5.665-15.4 11.521-31.328 14.887-47.168l.27.076-.183-.279-.033-.05-.054.253A9506.203 9506.203 0 0 0 33.681.923l.016-.355-.171.1-.011.007-.229.138.383.1h.013a122.313 122.313 0 0 1-2.068 17.216c-1.014 5.382-2.375 10.97-4.16 17.081-3.315 11.351-7.629 22.824-11.8 33.92C9.906 84.425 3.964 100.229.57 115.894l-.238-.07.063.094.128.192.047-.216A21711.565 21711.565 0 0 0 100.735 145z" transform="translate(241 92)"/>
        <path id="Fill_206" data-name="Fill 206" class="cls-8" d="M53.433 33.073C48.341 46.535 32.91 54.04 18.512 49.829 4.039 45.626-3.436 31.4 1.537 18 6.462 4.59 21.351-3.006 35.934 1.127 50.573 5.273 58.59 19.6 53.433 33.073" transform="translate(283 132)"/>
        <path id="Fill_207" data-name="Fill 207" class="cls-3" d="M27.5 25.782C21.59 32.531 15.613 39.266 9.78 46a24.058 24.058 0 0 1-8.265-27.818c4.9-13.469 19.929-21.21 34.426-17.06C50.5 5.285 58.582 19.886 53.454 33.418Q40.481 29.595 27.5 25.782" transform="translate(283 132)"/>
        <path id="Fill_208" data-name="Fill 208" class="cls-3" d="M27.5 25.515c5.153 6.856 10.248 13.716 15.455 20.591a29.462 29.462 0 0 1-24.455 3.73C4.114 45.66-3.429 31.3 1.515 17.993 6.413 4.664 21.444-3 35.941 1.11 50.5 5.231 58.582 19.68 53.454 33.072Q40.481 29.288 27.5 25.515" transform="translate(283 132)"/>
        <path id="Fill_209" data-name="Fill 209" class="cls-15" d="M27.5 25.46Q13.892 27.708.27 29.943a24.167 24.167 0 0 1 1.249-11.989c4.9-13.3 19.928-20.945 34.423-16.847C50.5 5.219 58.582 19.637 53.454 33Q40.482 29.224 27.5 25.46" transform="translate(283 132)"/>
        <path id="Fill_210" data-name="Fill 210" class="cls-3" d="M.567 0Q21.427 5.947 42 11.908q-.359 1.546-.743 3.092Q20.753 9.037 0 3.088.3 1.545.567 0" transform="translate(282 109)"/>
        <path id="Fill_211" data-name="Fill 211" class="cls-3" d="M.971 0Q28.335 7.982 56 16.038q-.416 1.48-.809 2.962Q27.408 10.926 0 2.933.477 1.466.971 0" transform="translate(278 186)"/>
        <path id="Fill_212" data-name="Fill 212" class="cls-3" d="M.873 0Q28.248 7.982 56 16.043q-.351 1.477-.674 2.957Q27.437 10.919 0 2.925.426 1.462.873 0" transform="translate(276 194)"/>
        <path id="Fill_213" data-name="Fill 213" class="cls-3" d="M.767 0Q28.652 7.983 57 16.049q-.28 1.475-.526 2.951Q27.966 10.913 0 2.916.371 1.458.767 0" transform="translate(274 201)"/>
        <path id="Fill_214" data-name="Fill 214" class="cls-12" d="M6.958 5 0 3.012Q.521 1.505 1.056 0L8 1.984Q7.471 3.492 6.958 5" transform="translate(262 181)"/>
        <path id="Fill_215" data-name="Fill 215" class="cls-10" d="M7.043 5 0 3.009Q.48 1.5.977 0L8 1.989Q7.512 3.493 7.043 5" transform="translate(259 189)"/>
        <path id="Fill_216" data-name="Fill 216" class="cls-3" d="M7.15 5 0 3q.425-1.5.875-3L8 1.991Q7.564 3.495 7.15 5" transform="translate(257 196)"/>
        <path id="Fill_217" data-name="Fill 217" class="cls-8" d="M188 116H13.461L0 0h174.539L188 116" transform="translate(155 168)"/>
        <path id="Fill_218" data-name="Fill 218" class="cls-8" d="M62.034 0H0l1.4 12H67L62.034 0" transform="translate(153 156)"/>
        <path id="Fill_219" data-name="Fill 219" class="cls-7" d="M.5 6A8.334 8.334 0 0 1 0 3a8.231 8.231 0 0 1 .5-3A8.275 8.275 0 0 1 1 3a8.357 8.357 0 0 1-.5 3" transform="translate(274 73)"/>
        <path id="Fill_220" data-name="Fill 220" class="cls-7" d="M3 5a10.52 10.52 0 0 1-1.825-2.319A10.138 10.138 0 0 1 0 0a10.406 10.406 0 0 1 1.824 2.319A10.245 10.245 0 0 1 3 5" transform="translate(265 76)"/>
        <path id="Fill_221" data-name="Fill 221" class="cls-7" d="M5 3a10.268 10.268 0 0 1-2.681-1.175A10.415 10.415 0 0 1 0 0a10.148 10.148 0 0 1 2.681 1.175A10.536 10.536 0 0 1 5 3" transform="translate(258 83)"/>
        <path id="Fill_222" data-name="Fill 222" class="cls-7" d="M6 .5A8.337 8.337 0 0 1 3 1a8.228 8.228 0 0 1-3-.5A8.248 8.248 0 0 1 3 0a8.336 8.336 0 0 1 3 .5" transform="translate(256 92)"/>
        <path id="Fill_223" data-name="Fill 223" class="cls-7" d="M5 0a10.533 10.533 0 0 1-2.32 1.825A10.163 10.163 0 0 1 0 3a10.358 10.358 0 0 1 2.32-1.825A10.248 10.248 0 0 1 5 0" transform="translate(258 98)"/>
        <path id="Fill_224" data-name="Fill 224" class="cls-7" d="M3 0a10.255 10.255 0 0 1-1.175 2.68A10.4 10.4 0 0 1 0 5a10.1 10.1 0 0 1 1.176-2.68A10.535 10.535 0 0 1 3 0" transform="translate(265 103)"/>
        <path id="Fill_225" data-name="Fill 225" class="cls-7" d="M.5 0A8.337 8.337 0 0 1 1 3a8.252 8.252 0 0 1-.5 3A8.275 8.275 0 0 1 0 3a8.36 8.36 0 0 1 .5-3" transform="translate(274 105)"/>
        <path id="Fill_226" data-name="Fill 226" class="cls-7" d="M0 0a10.536 10.536 0 0 1 1.825 2.319A10.148 10.148 0 0 1 3 5a10.393 10.393 0 0 1-1.825-2.319A10.268 10.268 0 0 1 0 0" transform="translate(281 103)"/>
        <path id="Fill_227" data-name="Fill 227" class="cls-7" d="M0 0a10.268 10.268 0 0 1 2.681 1.175A10.415 10.415 0 0 1 5 3a10.128 10.128 0 0 1-2.681-1.175A10.5 10.5 0 0 1 0 0" transform="translate(286 98)"/>
        <path id="Fill_228" data-name="Fill 228" class="cls-7" d="M0 .5A8.335 8.335 0 0 1 3 0a8.23 8.23 0 0 1 3 .5A8.25 8.25 0 0 1 3 1a8.356 8.356 0 0 1-3-.5" transform="translate(287 91)"/>
        <path id="Fill_229" data-name="Fill 229" class="cls-7" d="M0 3a10.516 10.516 0 0 1 2.32-1.825A10.153 10.153 0 0 1 5 0a10.4 10.4 0 0 1-2.32 1.826A10.307 10.307 0 0 1 0 3" transform="translate(285 82)"/>
        <path id="Fill_230" data-name="Fill 230" class="cls-7" d="M0 5a10.232 10.232 0 0 1 1.176-2.68A10.409 10.409 0 0 1 3 0a10.125 10.125 0 0 1-1.175 2.68A10.539 10.539 0 0 1 0 5" transform="translate(281 75)"/>
        <path id="Fill_231" data-name="Fill 231" class="cls-15" d="M0 40h40.017A21.342 21.342 0 0 0 42 32.039V0H1.983v32.454C1.983 35.7 0 40 0 40" transform="translate(277 181)"/>
        <path id="Fill_232" data-name="Fill 232" class="cls-17" d="M0 .5C4.667.111 9.333.02 14 0c4.667.019 9.333.108 14 .5-4.667.392-9.333.482-14 .5C9.333.98 4.667.889 0 .5" transform="translate(284 190)"/>
        <path id="Fill_233" data-name="Fill 233" class="cls-17" d="M0 .5C4.167.11 8.334.02 12.5 0c4.167.017 8.333.107 12.5.5-4.166.392-8.333.483-12.5.5C8.334.98 4.167.889 0 .5" transform="translate(284 195)"/>
        <path id="Fill_234" data-name="Fill 234" class="cls-17" d="M0 .5A109.574 109.574 0 0 1 11 0a107.963 107.963 0 0 1 11 .5A107.961 107.961 0 0 1 11 1 109.572 109.572 0 0 1 0 .5" transform="translate(284 200)"/>
        <path id="Fill_235" data-name="Fill 235" class="cls-17" d="M0 .5C4.667.111 9.333.02 14 0c4.667.018 9.333.108 14 .5-4.667.392-9.333.482-14 .5C9.333.98 4.667.889 0 .5" transform="translate(284 205)"/>
    </g>
</svg>
